
<svg xmlns="http://www.w3.org/2000/svg" version="1.1" xmlns:xlink="http://www.w3.org/1999/xlink" preserveAspectRatio="none" x="0px" y="0px" width="735px" height="320px" viewBox="0 0 735 320">
<defs>
<linearGradient id="Gradient_1" gradientUnits="userSpaceOnUse" x1="307.75" y1="80.9375" x2="307.75" y2="40.3625" spreadMethod="pad">
<stop  offset="0%" stop-color="#FFAC5A"/>

<stop  offset="98.82352941176471%" stop-color="#FAC496"/>
</linearGradient>

<linearGradient id="Gradient_2" gradientUnits="userSpaceOnUse" x1="377.5" y1="41.8" x2="377.5" y2="80.10000000000001" spreadMethod="pad">
<stop  offset="0%" stop-color="#FFAC5A"/>

<stop  offset="98.82352941176471%" stop-color="#FAC496"/>
</linearGradient>

<linearGradient id="Gradient_3" gradientUnits="userSpaceOnUse" x1="447.2" y1="96.1" x2="447.2" y2="26.300000000000004" spreadMethod="pad">
<stop  offset="0%" stop-color="#FFAC5A"/>

<stop  offset="98.82352941176471%" stop-color="#FAC496"/>
</linearGradient>

<linearGradient id="Gradient_4" gradientUnits="userSpaceOnUse" x1="238.15" y1="30.35" x2="238.15" y2="90.35" spreadMethod="pad">
<stop  offset="0%" stop-color="#FFAC5A"/>

<stop  offset="98.82352941176471%" stop-color="#FAC496"/>
</linearGradient>

<linearGradient id="Gradient_5" gradientUnits="userSpaceOnUse" x1="454.65" y1="139.88750000000002" x2="454.65" y2="108.41250000000001" spreadMethod="pad">
<stop  offset="0%" stop-color="#FFAC5A"/>

<stop  offset="98.82352941176471%" stop-color="#FAC496"/>
</linearGradient>

<linearGradient id="Gradient_6" gradientUnits="userSpaceOnUse" x1="540.5625" y1="108.02499999999999" x2="527.7375" y2="153.375" spreadMethod="pad">
<stop  offset="0%" stop-color="#FFAC5A"/>

<stop  offset="98.82352941176471%" stop-color="#FAC496"/>
</linearGradient>

<linearGradient id="Gradient_7" gradientUnits="userSpaceOnUse" x1="525.1125000000001" y1="39.45" x2="525.7875" y2="88.85000000000001" spreadMethod="pad">
<stop  offset="0%" stop-color="#FFAC5A"/>

<stop  offset="98.82352941176471%" stop-color="#FAC496"/>
</linearGradient>

<linearGradient id="Gradient_8" gradientUnits="userSpaceOnUse" x1="201.57500000000002" y1="221.10000000000002" x2="191.225" y2="292.1" spreadMethod="pad">
<stop  offset="0%" stop-color="#FFAC5A"/>

<stop  offset="98.82352941176471%" stop-color="#FAC496"/>
</linearGradient>

<linearGradient id="Gradient_9" gradientUnits="userSpaceOnUse" x1="119.07500000000002" y1="256.2125" x2="151.525" y2="214.0875" spreadMethod="pad">
<stop  offset="0%" stop-color="#FFAC5A"/>

<stop  offset="98.82352941176471%" stop-color="#FAC496"/>
</linearGradient>

<linearGradient id="Gradient_10" gradientUnits="userSpaceOnUse" x1="273.9" y1="294.575" x2="273.9" y2="221.825" spreadMethod="pad">
<stop  offset="0%" stop-color="#FFAC5A"/>

<stop  offset="98.82352941176471%" stop-color="#FAC496"/>
</linearGradient>

<linearGradient id="Gradient_11" gradientUnits="userSpaceOnUse" x1="129.4625" y1="184.875" x2="71.0375" y2="187.72500000000002" spreadMethod="pad">
<stop  offset="0%" stop-color="#FFAC5A"/>

<stop  offset="98.82352941176471%" stop-color="#FAC496"/>
</linearGradient>

<linearGradient id="Gradient_12" gradientUnits="userSpaceOnUse" x1="86.1625" y1="93.63749999999999" x2="138.0375" y2="121.5625" spreadMethod="pad">
<stop  offset="0%" stop-color="#FFAC5A"/>

<stop  offset="98.82352941176471%" stop-color="#FAC496"/>
</linearGradient>

<linearGradient id="Gradient_13" gradientUnits="userSpaceOnUse" x1="164.475" y1="87.85" x2="149.42499999999998" y2="51.15" spreadMethod="pad">
<stop  offset="0%" stop-color="#FFAC5A"/>

<stop  offset="98.82352941176471%" stop-color="#FAC496"/>
</linearGradient>

<linearGradient id="Gradient_14" gradientUnits="userSpaceOnUse" x1="565.1875" y1="262.1125" x2="536.0125" y2="219.3875" spreadMethod="pad">
<stop  offset="0%" stop-color="#FFAC5A"/>

<stop  offset="98.82352941176471%" stop-color="#FAC496"/>
</linearGradient>

<linearGradient id="Gradient_15" gradientUnits="userSpaceOnUse" x1="345.35" y1="226.15" x2="345.35" y2="290.35" spreadMethod="pad">
<stop  offset="0%" stop-color="#FFAC5A"/>

<stop  offset="98.82352941176471%" stop-color="#FAC496"/>
</linearGradient>

<linearGradient id="Gradient_16" gradientUnits="userSpaceOnUse" x1="413.65" y1="291.77500000000003" x2="413.65" y2="224.82500000000002" spreadMethod="pad">
<stop  offset="0%" stop-color="#FFAC5A"/>

<stop  offset="98.82352941176471%" stop-color="#FAC496"/>
</linearGradient>

<linearGradient id="Gradient_17" gradientUnits="userSpaceOnUse" x1="479.8" y1="225.70000000000002" x2="479.8" y2="290.90000000000003" spreadMethod="pad">
<stop  offset="0%" stop-color="#FFAC5A"/>

<stop  offset="98.82352941176471%" stop-color="#FAC496"/>
</linearGradient>

<linearGradient id="Gradient_18" gradientUnits="userSpaceOnUse" x1="533.7" y1="173.35" x2="610" y2="173.35" spreadMethod="pad">
<stop  offset="0%" stop-color="#FFAC5A"/>

<stop  offset="98.82352941176471%" stop-color="#FAC496"/>
</linearGradient>

<linearGradient id="Gradient_19" gradientUnits="userSpaceOnUse" x1="579.8375000000001" y1="111.9375" x2="619.5625" y2="69.86250000000001" spreadMethod="pad">
<stop  offset="0%" stop-color="#FFAC5A"/>

<stop  offset="98.82352941176471%" stop-color="#FAC496"/>
</linearGradient>

<linearGradient id="Gradient_20" gradientUnits="userSpaceOnUse" x1="672.725" y1="160.8125" x2="611.0749999999999" y2="162.9875" spreadMethod="pad">
<stop  offset="0%" stop-color="#FFAC5A"/>

<stop  offset="98.82352941176471%" stop-color="#FAC496"/>
</linearGradient>

<g id="Layer0_0_MEMBER_0_FILL">
<path fill="#47B5C3" stroke="none" d="
M 418.9 92.15
L 412.3 92.15 342.65 92.15 329.25 92.15 329.2 92.2 327.85 93.1 352.8 123.05 327.85 155.8 328.45 156.2 418.9 156.2 418.9 92.15 Z"/>

<path fill="url(#Gradient_1)" stroke="none" d="
M 329.25 92.15
L 342.65 92.15 342.65 29.65 272.95 29.05 272.95 92.2 329.2 92.2 329.25 92.15 Z"/>

<path fill="url(#Gradient_2)" stroke="none" d="
M 412.3 92.15
L 412.3 30.25 342.65 29.65 342.65 92.15 412.3 92.15 Z"/>

<path fill="url(#Gradient_3)" stroke="none" d="
M 418.9 92.15
L 419.3 92.15 420.3 92.15 482.1 92.15 482.1 30.85 412.3 30.25 412.3 92.15 418.9 92.15 Z"/>

<path fill="url(#Gradient_4)" stroke="none" d="
M 272.95 92.2
L 272.95 29.05 203.25 28.45 203.25 92.2 272.95 92.2 Z"/>

<path fill="url(#Gradient_5)" stroke="none" d="
M 490.25 156.2
L 490.25 92.15 482.1 92.15 420.3 92.15 419.3 93 419.3 155.9 419.65 156.2 490.25 156.2 Z"/>

<path fill="url(#Gradient_6)" stroke="none" d="
M 518.15 92.15
L 490.25 92.15 490.25 156.2 507.25 156.2
Q 521.7 156.2 531.95 166.4 532.85 167.35 533.7 168.3
L 578.3 119.75
Q 562.9 104.95 544.4 97.95 531.95 93.3 518.15 92.15 Z"/>

<path fill="url(#Gradient_7)" stroke="none" d="
M 508.4 91.7
Q 513.35 91.7 518.15 92.15 531.95 93.3 544.4 97.95
L 568.9 36.25
Q 550.85 31.2 530.6 31.2
L 482.1 30.85 482.1 92.15 490.25 92.15 518.15 92.15
Q 513.35 91.7 508.4 91.7 Z"/>

<path fill="#FAC496" stroke="none" d="
M 155.15 284.5
L 157.05 277.6 154.55 284.3
Q 154.84453125 284.409765625 155.15 284.5 Z"/>

<path fill="url(#Gradient_8)" stroke="none" d="
M 157.05 277.6
L 155.15 284.5
Q 174.1 290.05 195.35 290.05
L 237.6 290.55 237.6 224.95 195.4 224.95
Q 186.186328125 224.95 177.85 222.6
L 157.05 277.6 Z"/>

<path fill="url(#Gradient_9)" stroke="none" d="
M 153.3 208.75
Q 151.55 207.2 149.95 205.5 144.3 199.65 140.35 193.15
L 82.1 230.9
Q 89.65 241.85 99.85 251.7 124.10703125 275.16484375 154.55 284.3
L 157.05 277.6 177.85 222.6
Q 175.3927734375 221.9044921875 173 221 162.3 216.95 153.3 208.75 Z"/>

<path fill="url(#Gradient_10)" stroke="none" d="
M 310.35 291.4
L 310.35 224.95 237.6 224.95 237.6 290.55 310.35 291.4 Z"/>

<path fill="url(#Gradient_11)" stroke="none" d="
M 60.3 159.15
L 60.3 159.25
Q 60.3 174.95 63.65 189.35 68.8 211.75 82.1 230.9
L 140.35 193.15
Q 137.05 187.7 134.95 181.8 131.1 171 131.1 158.55 131.1 154.9 131.4 151.35
L 61.4 141.8
Q 60.3 150.3 60.3 159.15 Z"/>

<path fill="url(#Gradient_12)" stroke="none" d="
M 107.65 59.7
Q 103.7 63.05 99.85 66.75 66.8 98.75 61.4 141.8
L 131.4 151.35
Q 133.65 128.45 149.95 111.6 152.9 108.6 156.05 106.05
L 107.65 59.7 Z"/>

<path fill="url(#Gradient_13)" stroke="none" d="
M 195.4 92.2
L 203.25 92.2 203.25 28.45 195.35 28.4
Q 172.8 28.4 152.9 34.7 128.2 42.35 107.65 59.7
L 156.05 106.05
Q 172.95 92.2 195.4 92.2 Z"/>

<path fill="url(#Gradient_14)" stroke="none" d="
M 580.35 262.05
Q 596.15 246.3 603.55 227
L 539.2 205.5
Q 536.65 211.1 531.95 215.8 525 222.75 516.25 224.95
L 512.4 224.95 512.4 291.65
Q 551.95 290.4 580.35 262.05 Z"/>

<path fill="url(#Gradient_15)" stroke="none" d="
M 380.25 291.5
L 380.25 224.95 310.35 224.95 310.35 291.4 380.25 291.5 Z"/>

<path fill="url(#Gradient_16)" stroke="none" d="
M 447.2 291.6
L 447.2 224.95 380.25 224.95 380.25 291.5 447.2 291.6 Z"/>

<path fill="url(#Gradient_17)" stroke="none" d="
M 447.2 224.95
L 447.2 291.6 508.8 291.7
Q 510.6 291.7 512.4 291.65
L 512.4 224.95 447.2 224.95 Z"/>

<path fill="url(#Gradient_18)" stroke="none" d="
M 533.7 168.3
Q 542.15 177.95 542.15 191.1 542.15 198.9 539.2 205.5
L 603.55 227
Q 607.15 217.6 608.75 207.3 608.9 206.55 609 205.8 610 198.35 610 190.5 610 170 602.4 152.8 599.9 147.25 596.5 141.85 589.85 131.25 579.9 121.3 579.1 120.5 578.3 119.75
L 533.7 168.3 Z"/>

<path fill="url(#Gradient_19)" stroke="none" d="
M 633.9 77.65
Q 630.2 73.55 626.1 69.55 600.85 45.05 568.9 36.25
L 544.4 97.95
Q 562.9 104.95 578.3 119.75 579.1 120.5 579.9 121.3 589.85 131.25 596.5 141.85
L 652.95 106.3
Q 645.2 91.25 633.9 77.65 Z"/>

<path fill="#EF6928" stroke="none" d="
M 672.5 221.45
Q 672.55 221.1 672.6 220.8
L 645.25 186 609 205.8
Q 608.9 206.55 608.75 207.3
L 672.5 221.45 Z"/>

<path fill="url(#Gradient_20)" stroke="none" d="
M 657 114.85
Q 655.1 110.55 652.95 106.3
L 596.5 141.85
Q 599.9 147.25 602.4 152.8 610 170 610 190.5 610 198.35 609 205.8
L 645.25 186 672.6 220.8
Q 674.65 206.55 674.75 192.1 675 170.9 669.65 150.35 669.05 148 668.4 145.6 664.7 132.5 657 114.85 Z"/>
</g>

<g id="Layer0_0_MEMBER_1_FILL">
<path fill="#FFFFFF" stroke="none" d="
M 382.3 118.75
L 379.4 118.75 379.4 132.3 382.3 132.3 382.3 118.75
M 376.8 118.75
L 369.05 118.75 369.05 132.3 371.9 132.3 371.9 126.95 376.5 126.95 376.5 124.6 371.9 124.6 371.9 121.1 376.8 121.1 376.8 118.75
M 397.5 121.7
L 397.6 121.7
Q 397.5 124.25 397.5 124.85
L 397.45 132.3 400.15 132.3 400.15 118.75 396.25 118.75 392.85 129.1 392.75 129.1 389.55 118.75 385.65 118.75 385.65 132.3 388.2 132.3 388.05 121.65 388.15 121.65 391.4 132.3 394 132.3 397.5 121.7 Z"/>
</g>

<g id="Layer0_0_MEMBER_1_MEMBER_0_FILL">
<path fill="#FFFFFF" stroke="none" d="
M 402.95 140.95
L 402.95 137 363.1 137 363.1 140.95 402.95 140.95 Z"/>
</g>

<g id="Layer0_0_MEMBER_2_MEMBER_0_FILL">
<path fill="#EF6928" stroke="none" d="
M 677.4 254.35
L 677.4 236.05 617.2 236.05 617.2 254.35 677.4 254.35 Z"/>
</g>

<g id="Layer0_0_MEMBER_2_MEMBER_1_FILL">
<path fill="#FFFFFF" stroke="none" d="
M 620.65 219.95
L 618.85 219.95 618.85 228.5 620.65 228.5 620.65 219.95
M 640.1 219.8
Q 638.9 219.8 638 220.35 637.05 220.9 636.6 221.9 636.1 222.9 636.1 224.25 636.1 226.35 637.1 227.5 638.1 228.6 639.95 228.6 641.25 228.6 642.3 228.2
L 642.3 226.65
Q 641 227.1 640.1 227.1 637.95 227.1 637.95 224.25 637.95 222.85 638.55 222.1 639.1 221.3 640.1 221.3 640.6 221.3 641.05 221.5
L 642.05 221.9 642.6 220.4
Q 641.35 219.8 640.1 219.8
M 645.9 219.95
L 644.1 219.95 644.1 228.5 645.9 228.5 645.9 219.95
M 634.35 219.95
L 632.55 219.95 632.55 228.5 634.35 228.5 634.35 219.95
M 630.4 219.95
L 628.75 219.95 628.85 226.35 628.8 226.35 625.05 219.95 622.8 219.95 622.8 228.5 624.4 228.5 624.3 222 624.35 222 628.05 228.5 630.4 228.5 630.4 219.95
M 632.45 219.1
L 632.45 219.25 633.6 219.25 635.8 217.45 635.8 217.35 633.8 217.35
Q 633.45 217.9 632.45 219.1
M 654.75 220.95
Q 653.7 219.8 651.75 219.8 649.75 219.8 648.7 220.95 647.65 222.05 647.65 224.2 647.65 226.35 648.7 227.45 649.75 228.6 651.75 228.6 653.7 228.6 654.75 227.45 655.8 226.35 655.8 224.2 655.8 222.05 654.75 220.95
M 650.1 222.05
Q 650.65 221.3 651.75 221.3 653.9 221.3 653.9 224.2 653.9 227.1 651.75 227.1 650.65 227.1 650.1 226.35 649.55 225.65 649.55 224.2 649.55 222.75 650.1 222.05 Z"/>
</g>

<path id="Layer0_0_MEMBER_0_1_STROKES" stroke="#FFFFFF" stroke-width="3" stroke-linejoin="round" stroke-linecap="round" fill="none" d="
M 82.09999999999991 106.25
Q 79.94999999999993 110.5 78.04999999999995 114.8 79.75 110.4 81.89999999999998 106.15
L 82.09999999999991 106.25 Z
M 82.09999999999991 106.25
Q 89.84999999999991 91.2 101.14999999999998 77.60000000000001 104.84999999999991 73.5 108.94999999999993 69.5 134.19999999999993 45 166.14999999999998 36.2
L 190.64999999999998 97.9
Q 172.14999999999998 104.9 156.75 119.7 155.94999999999993 120.45 155.14999999999998 121.25 145.19999999999993 131.2 138.54999999999995 141.79999999999998
L 82.09999999999991 106.25 Z
M 78.04999999999995 114.8
Q 70.34999999999991 132.45 66.64999999999998 145.54999999999998 66 147.95 65.39999999999998 150.29999999999998 60.049999999999955 170.85 60.299999999999955 192.04999999999998 60.39999999999998 206.5 62.44999999999993 220.75 62.5 221.04999999999998 62.549999999999955 221.39999999999998
L 126.29999999999995 207.25
Q 127.89999999999998 217.54999999999998 131.5 226.95 138.89999999999998 246.25 154.69999999999993 262 183.0999999999999 290.34999999999997 222.64999999999998 291.59999999999997 224.44999999999993 291.65 226.24999999999994 291.65
L 287.84999999999997 291.55 354.79999999999995 291.45 424.69999999999993 291.34999999999997 497.44999999999993 290.5 539.6999999999999 290
Q 560.9499999999999 290 579.9 284.45 580.2054687499999 284.35976562499997 580.5 284.275
L 581.5999999999999 287.15
M 226.64999999999998 91.65
Q 221.69999999999993 91.65 216.89999999999998 92.10000000000001 203.0999999999999 93.25 190.64999999999998 97.9
M 244.79999999999995 92.10000000000001
L 216.89999999999998 92.10000000000001
M 244.79999999999995 156.14999999999998
L 227.79999999999995 156.14999999999998
Q 213.3499999999999 156.14999999999998 203.0999999999999 166.35 202.19999999999993 167.29999999999998 201.3499999999999 168.25
L 156.75 119.7
M 201.3499999999999 168.25
Q 192.89999999999998 177.89999999999998 192.89999999999998 191.04999999999998 192.89999999999998 198.85 195.8499999999999 205.45
L 131.5 226.95
M 138.54999999999995 141.79999999999998
Q 135.14999999999998 147.2 132.64999999999998 152.75 125.04999999999995 169.95 125.04999999999995 190.45 125.04999999999995 198.29999999999998 126.04999999999995 205.75
L 89.79999999999995 185.95 62.44999999999993 220.75
M 244.79999999999995 92.10000000000001
L 244.79999999999995 156.14999999999998 315.4 156.14999999999998 315.74999999999994 155.85
M 314.74999999999994 92.10000000000001
L 315.74999999999994 92.97500000000001
M 315.74999999999994 92.10000000000001
L 314.74999999999994 92.10000000000001
M 316.15 92.10000000000001
L 316.15 156.14999999999998 406.59999999999997 156.14999999999998 407.19999999999993 155.75 382.24999999999994 123 407.19999999999993 93.05 405.84999999999997 92.15 462.09999999999997 92.15 531.8 92.15 539.65 92.15
Q 562.0999999999999 92.15 579 106 582.15 108.55 585.0999999999999 111.55 601.4 128.39999999999998 603.65 151.29999999999998 603.9499999999999 154.85 603.9499999999999 158.5 603.9499999999999 170.95 600.0999999999999 181.75 598 187.64999999999998 594.6999999999999 193.1 590.75 199.6 585.0999999999999 205.45 583.5 207.14999999999998 581.75 208.7 572.75 216.89999999999998 562.05 220.95 559.6572265625 221.8544921875 557.175 222.54999999999998
L 554.9 216.5
M 252.94999999999993 30.8
L 204.44999999999993 31.15
Q 184.19999999999993 31.15 166.14999999999998 36.2
M 322.74999999999994 92.10000000000001
L 316.15 92.10000000000001
M 252.94999999999993 30.8
L 252.94999999999993 92.10000000000001 244.79999999999995 92.10000000000001
M 322.74999999999994 30.2
L 322.74999999999994 92.10000000000001 392.4 92.10000000000001 405.79999999999995 92.10000000000001 405.84999999999997 92.15
M 322.74999999999994 30.2
L 252.94999999999993 30.8
M 314.74999999999994 92.10000000000001
L 252.94999999999993 92.10000000000001
M 392.4 29.599999999999998
L 392.4 92.10000000000001
M 392.4 29.599999999999998
L 322.74999999999994 30.2
M 287.84999999999997 224.89999999999998
L 287.84999999999997 291.55
M 354.79999999999995 224.89999999999998
L 354.79999999999995 291.45
M 287.84999999999997 224.89999999999998
L 354.79999999999995 224.89999999999998 424.69999999999993 224.89999999999998 424.69999999999993 291.34999999999997
M 126.04999999999995 205.75
Q 126.14999999999998 206.5 126.29999999999995 207.25
M 195.8499999999999 205.45
Q 198.39999999999998 211.04999999999998 203.0999999999999 215.75 210.04999999999995 222.7 218.79999999999995 224.89999999999998
L 222.64999999999998 224.89999999999998 222.64999999999998 291.59999999999997
M 222.64999999999998 224.89999999999998
L 287.84999999999997 224.89999999999998
M 462.09999999999997 29
L 462.09999999999997 92.15
M 627.4 59.650000000000006
Q 606.8499999999999 42.300000000000004 582.15 34.650000000000006 562.25 28.349999999999998 539.6999999999999 28.349999999999998
L 531.8 28.4 462.09999999999997 29 392.4 29.599999999999998
M 531.8 28.4
L 531.8 92.15
M 673.65 141.75
Q 668.25 98.7 635.1999999999999 66.7 631.3499999999999 63 627.4 59.650000000000006
L 579 106
M 652.9499999999999 230.85
Q 666.25 211.7 671.4 189.29999999999998 674.75 174.89999999999998 674.75 159.2
L 674.75 159.1
Q 674.75 150.25 673.65 141.75
L 603.65 151.29999999999998
M 577.9749999999999 277.575
L 580.5 284.275
Q 610.94296875 275.11484375 635.1999999999999 251.64999999999998 645.4 241.79999999999998 652.9499999999999 230.85
L 594.6999999999999 193.1
M 497.44999999999993 224.89999999999998
L 539.65 224.89999999999998
Q 548.8636718749999 224.89999999999998 557.175 222.54999999999998
L 577.9749999999999 277.575
M 497.44999999999993 224.89999999999998
L 497.44999999999993 290.5
M 424.69999999999993 224.89999999999998
L 497.44999999999993 224.89999999999998
M 101.14999999999998 77.60000000000001
Q 89.29999999999995 91 81.89999999999998 106.15"/>
</defs>

<g transform="matrix( -1, 0, 0, 1, 735.05,-0.05) ">
<use xlink:href="#Layer0_0_MEMBER_0_FILL"/>

<use xlink:href="#Layer0_0_MEMBER_0_1_STROKES" transform="matrix( -1, 0, 0, 1, 735.05,0.05) "/>
</g>

<g transform="matrix( 1, 0, 0, 1, -30.6,-5.3) ">
<use xlink:href="#Layer0_0_MEMBER_1_FILL"/>
</g>

<g transform="matrix( 1, 0, 0, 1, -29.1,-5.3) ">
<use xlink:href="#Layer0_0_MEMBER_1_MEMBER_0_FILL"/>
</g>

<g transform="matrix( 0.9771270751953125, -0.2125396728515625, 0.2125396728515625, 0.9771270751953125, -587.45,122.6) ">
<use xlink:href="#Layer0_0_MEMBER_2_MEMBER_0_FILL"/>
</g>

<g transform="matrix( 1.257415771484375, -0.283477783203125, 0.283477783203125, 1.257415771484375, -766.55,124.25) ">
<use xlink:href="#Layer0_0_MEMBER_2_MEMBER_1_FILL"/>
</g>
</svg>
