<svg version="1.2" xmlns="http://www.w3.org/2000/svg" viewBox="0 0 126 60" width="126" height="60">
	<title>CODEP_EPPS_M1U2_RIM_10b-svg</title>
	<defs>
		<clipPath clipPathUnits="userSpaceOnUse" id="cp1">
			<path d="m72.4 11.55h28.6v28h-28.6z"/>
		</clipPath>
	</defs>
	<style>
		tspan { white-space:pre } 
		.s0 { fill: #0f546b } 
		.s1 { fill: #fac496 } 
		.s2 { fill: #ffac5a } 
		.s3 { fill: #7cb8af } 
		.s4 { fill: #47b5c3 } 
		.s5 { fill: #6b2714 } 
		.s6 { fill: #b84a2c } 
		.s7 { fill: none;stroke: #ffffff;stroke-linecap: round;stroke-linejoin: round;stroke-width: 2 } 
		.s8 { fill: #d4d4d4 } 
		.s9 { fill: #576570 } 
		.t10 { font-size: 24px;fill: #ffffff;font-weight: bold;font-family: "D S_ Digital_ Bold_ Bold" } 
	</style>
	<g id="Layer">
		<g id="Layer0_0_MEMBER_0_MEMBER_0_MEMBER_0_FILL">
			<path id="Layer" class="s0" d="m125.7-0.4v60.8h-125.3v-60.8z"/>
		</g>
	</g>
	<g id="Layer">
		<g id="Layer0_0_MEMBER_0_MEMBER_0_MEMBER_1_FILL">
			<path id="Layer" class="s1" d="m34.1 55.3q0 0.7-0.5 1.2-0.5 0.6-1.2 0.6h-21.3q-0.7 0-1.3-0.6-0.5-0.5-0.5-1.2 0-0.6 0.5-1.2 0.6-0.5 1.3-0.5h21.3q0.7 0 1.2 0.5 0.5 0.6 0.5 1.2z"/>
		</g>
	</g>
	<g id="Layer">
		<g id="Layer0_0_MEMBER_0_MEMBER_0_MEMBER_2_FILL">
			<path id="Layer" class="s2" d="m61.3 55.3q0 0.7-0.5 1.2-0.5 0.6-1.2 0.6h-21.3q-0.7 0-1.3-0.6-0.5-0.5-0.5-1.2 0-0.6 0.5-1.2 0.6-0.5 1.3-0.5h21.3q0.7 0 1.2 0.5 0.5 0.6 0.5 1.2z"/>
		</g>
	</g>
	<g id="Layer">
		<g id="Layer0_0_MEMBER_0_MEMBER_0_MEMBER_3_FILL">
			<path id="Layer" class="s3" d="m88.5 55.3q0 0.7-0.5 1.2-0.5 0.6-1.2 0.6h-21.3q-0.7 0-1.3-0.6-0.5-0.5-0.5-1.2 0-0.6 0.5-1.2 0.6-0.5 1.3-0.5h21.3q0.7 0 1.2 0.5 0.5 0.6 0.5 1.2z"/>
		</g>
	</g>
	<g id="Layer">
		<g id="Layer0_0_MEMBER_0_MEMBER_0_MEMBER_4_FILL">
			<path id="Layer" class="s4" d="m115.7 55.3q0 0.7-0.5 1.2-0.5 0.6-1.2 0.6h-21.3q-0.7 0-1.3-0.6-0.5-0.5-0.5-1.2 0-0.6 0.5-1.2 0.6-0.5 1.3-0.5h21.3q0.7 0 1.2 0.5 0.5 0.6 0.5 1.2z"/>
		</g>
	</g>
	<g id="Layer">
		<g id="Layer0_0_MEMBER_0_MEMBER_0_MEMBER_5_FILL">
			<path id="Layer" class="s5" d="m48.2 26.4q0 8.5-6 14.4-6 6.1-14.5 6.1-8.5 0-14.5-6.1-6-5.9-6-14.4 0-8.5 6-14.6 6-5.9 14.5-5.9 8.5 0 14.5 5.9 6 6.1 6 14.6z"/>
		</g>
	</g>
	<g id="Layer">
		<g id="Layer0_0_MEMBER_0_MEMBER_0_MEMBER_6_FILL">
			<path id="Layer" class="s6" d="m46.8 24.9q0 8.5-6 14.4-6 6.1-14.5 6.1-8.5 0-14.5-6.1-6-5.9-6-14.4 0-8.5 6-14.6 6-5.9 14.5-5.9 8.5 0 14.5 5.9 6 6.1 6 14.6z"/>
		</g>
	</g>
	<g id="Layer">
		<g id="Layer0_0_MEMBER_0_MEMBER_0_MEMBER_7_FILL">
			<path id="Layer" class="s6" d="m20.3 15.5l16.3 9.4-16.3 9.5z"/>
		</g>
		<path id="Layer0_0_MEMBER_0_MEMBER_0_MEMBER_7_1_STROKES" class="s7" d="m36.6 25l-16.3 9.4v-18.9z"/>
	</g>
	<g id="Layer">
		<g id="Layer0_0_MEMBER_0_MEMBER_0_MEMBER_8_FILL">
			<path id="Layer" class="s8" d="m62.1 6.2h49.2q8.2 0 8.2 8.2v22.3q0 8.2-8.2 8.2h-49.2q-8.2 0-8.2-8.2v-22.3q0-8.2 8.2-8.2z"/>
		</g>
		<path id="Layer0_0_MEMBER_0_MEMBER_0_MEMBER_8_1_STROKES" class="s7" d="m62.1 6.2h49.2q8.2 0 8.2 8.2v22.3q0 8.2-8.2 8.2h-49.2q-8.2 0-8.2-8.2v-22.3q0-8.2 8.2-8.2z"/>
	</g>
	<g id="Layer">
		<g id="Layer0_0_MEMBER_0_MEMBER_0_MEMBER_9_FILL">
			<path id="Layer" class="s9" d="m59.2 17.5q0-5.5 5.5-5.5h43.9q5.6 0 5.6 5.5v17.3q0 5.5-5.6 5.5h-43.9q-5.5 0-5.5-5.5z"/>
		</g>
	</g>
	<g id="Layer">
		<g id="Clip-Path" clip-path="url(#cp1)">
			<text id="05" style="transform: matrix(1,0,0,1,71.4,101.2)" >
				<tspan x="0" y="0" class="t10">05
</tspan>
			</text>
		</g>
	</g>
</svg>