
<svg xmlns="http://www.w3.org/2000/svg" version="1.1" xmlns:xlink="http://www.w3.org/1999/xlink" preserveAspectRatio="none" x="0px" y="0px" width="350px" height="350px" viewBox="0 0 350 350">
<defs>
<linearGradient id="Gradient_1" gradientUnits="userSpaceOnUse" x1="41.49999999999997" y1="176.2" x2="324.9" y2="176.2" spreadMethod="pad">
<stop  offset="0%" stop-color="#47B5C3"/>

<stop  offset="100%" stop-color="#E5FFF9"/>
</linearGradient>

<linearGradient id="Gradient_2" gradientUnits="userSpaceOnUse" x1="161.95000000000002" y1="208.3125" x2="180.85" y2="250.28750000000002" spreadMethod="pad">
<stop  offset="0%" stop-color="#ABD1DC" stop-opacity="0.4"/>

<stop  offset="100%" stop-color="#E5FFF9" stop-opacity="0.24705882352941178"/>
</linearGradient>

<g id="Layer1_0_FILL">
<path fill="url(#Gradient_1)" stroke="none" d="
M 283.4 76
Q 241.9 34.5 183.2 34.5 124.5 34.5 83 76 41.5 117.5 41.5 176.2 41.5 234.9 83 276.4 124.5 317.9 183.2 317.9 241.9 317.9 283.4 276.4 324.9 234.9 324.9 176.2 324.9 117.5 283.4 76 Z"/>
</g>

<g id="Layer1_1_FILL">
<path fill="#053336" stroke="none" d="
M 243.55 18.2
Q 243.4451171875 17.9951171875 243.3 17.85
L 239.75 15.2
Q 185.95 24.9 132.3 34.45
L 97.3 40.85
Q 80.55 44.2 63.95 48.2 61.4 48.9 59.55 50.45 57.2 52.65 55.7 55.35 55.45 55.8 55.3 56.25 55 56.9 54.6 57.5
L 54.75 58.45 54.45 59.55
Q 54.5 59.8 54.65 59.9 54.85 60.15 55.25 60.3 55.35 60.2 55.5 60.15
L 101.9 319.6
Q 101.8 319.9 101.8 320.25 101.85 325.2 104.35 329.25 104.7 329.8 105.15 330.35 105.5 330.8 106 331.25 106.45 331.6 106.75 332
L 105.45 332.4 111.6 334.85 173.2 323.8
Q 203.5 318.15 234 312.85 260.25 308.35 286.15 302.1 288.55 301.3 290.35 299.7 292.8 297.55 294.35 294.95 294.55 294.5 294.75 294.05 295.05 293.45 295.45 292.85
L 295.3 291.85 295.6 290.75
Q 295.55 290.55 295.4 290.45 295.15 290.2 294.8 290.15 294.65 290.15 294.5 290.25
L 248.15 30.75
Q 248.25 30.4 248.25 30.1 248.3 25.95 246.35 22.35 246.05 21.7 245.7 21.1 245.4 20.55 245 20.1 244.55 19.55 244.15 19.15 243.65 18.7 243.15 18.3 243.25 18.3 243.4 18.25 243.518359375 18.210546875 243.55 18.2
M 243 22.95
Q 243.6 23.55 244.05 24.3 244.5 25.1 244.85 26.05 245.3 26.95 245.65 28 244.9 29.45 245.15 31.1 245.8 35.6 246.55 40 247.5 45.4 248.45 50.85 249.7 57.9 251 65.1 253.35 77.65 255.6 90.2 257.85 102.75 260.1 115.3 261.3 122 262.5 128.65 263.55 134.55 264.6 140.4 266.85 152.95 269.15 165.5 271.4 178.05 273.6 190.6 274.25 194.2 274.9 197.75 275.4 200.5 275.85 203.25 277.05 209.5 278.2 215.7 278.85 219.05 279.55 222.4 281.25 231.55 282.95 240.75 285.2 253.25 287.45 265.85 289.25 275.9 291.35 285.95 291.6 287.2 291.85 288.4 291.95 288.9 292.1 289.4 292.3 289.85 292.4 290.35 292.5 290.6 292.55 290.85 292.6 291.1 292.65 291.3 292.75 291.55 292.9 291.75
L 293.7 292.15 289.3 297.5
Q 287.6 298.5 285.6 299.15 274.65 302.9 262.85 304.4 253.05 306.05 243.2 307.8 230.7 309.9 218.25 312.1 210.65 313.45 203 314.8 195.45 316.15 187.85 317.55 180.25 318.85 172.55 320.2 158.15 322.8 143.75 325.35 129.35 327.95 114.9 330.55 111.55 330.6 108.75 328.9 107.8 328.3 107.05 327.5 106.45 326.8 106 326.1 105.75 325.7 105.55 325.3 105.3 324.85 105.15 324.4 104.75 323.35 104.4 322.35 105 320.85 104.8 319.2 104.25 314.75 103.5 310.3 101.35 297.8 99 285.2 96.7 272.65 94.45 260.1 92.3 248.25 90.2 236.4 90.05 235.7 89.95 235 87.65 222.45 85.4 209.9 83.15 197.35 80.9 184.8 78.65 172.25 76.45 159.75 74.2 147.15 71.8 134.65 69.4 122.15 67.15 109.6 64.9 97.05 62.6 84.5 60.75 74.4 58.6 64.4 58.35 63.3 58.15 61.9 58.05 61.4 57.9 60.95 57.7 60.45 57.55 60 57.5 59.75 57.45 59.5 57.45 59.25 57.35 59 57.25 58.8 57.15 58.55
L 56.35 58.15 60.7 52.85
Q 62.6 51.8 64.8 51.05 68.05 49.8 71.5 49.2 84.75 46.8 97.95 44.45 102.15 43.7 106.45 42.9 106.5 43.15 106.55 43.4
L 107 46.9 103.95 47.95 103.5 49 103.85 51.4 64.3 58.55 96.8 239.1 112.55 326.75 113.95 326.5 114.1 327.1 286.5 296.05 273.85 225.9 238.25 27.85 236.9 28.1 236.75 27.5 213.35 31.7 213.1 30.15
Q 212.8 28.5 212.2 27.95 211.1 26.75 208.2 27.6 207.95 27.7 207.7 27.8 207.7 27.7 207.65 27.6 207.65 27.35 207.6 27.1 207.55 26.9 207.5 26.65 207.45 26.4 207.4 26.15 207.35 25.9 207.3 25.65 207.25 25.4 207.25 25.15 207.2 25 207.15 24.8 221.1 22.25 235.2 20.15 237.6 19.8 240.05 20.8 240.8 20.95 241.45 21.45 242.35 22.05 243 22.95
M 213.85 34.5
L 213.8 34.1 236 30.15 271.5 227.35 283.5 294.15 117 324.1 117.1 324.75 115.65 325 115.55 324.35 115.1 324.45 99.95 240.3 67.6 60.45 104.25 53.85 104.85 57.45 105.65 58.3 106.1 60.8 108.65 65.4 137.15 61.35
Q 165 56.4 192.85 51.4 194.7 51.05 196.55 50.6 196.8 50.5 197.15 50.45
L 197.4 50.4
Q 200.95 49.9 202.7 49.55 205.55 48.9 207.75 47.85 210.25 46.65 212 44.65 213.9 42.45 214.25 40 214.5 38.15 213.85 34.5
M 207.9 30.25
Q 207.9 30.2 207.9 30.15 208.1 30.1 208.3 30.05 210.05 29.75 210.45 29.9 210.55 30.9 211.25 34 211.8 36.55 211.65 38.15 211.3 41.15 208.5 43.5 206.2 45.55 202.7 46.6 201.45 47 196.35 47.95 196 48 195.7 48.1 195.55 48.1 195.45 48.1 193.85 48.3 192.3 48.45 164.45 53.45 136.6 58.4 123.55 61.25 110.45 61.9 110.25 61.8 110.15 61.65
L 109.2 58.85 108.6 58.4 107.85 55.5 107.25 55.1 106.15 49.7 106.7 48.95 134.1 44.45
Q 140.15 43.4 146.15 42.35 176.3 36.95 206.5 31.5 206.9 31.35 207.3 31.2 207.45 31 207.6 30.8 207.7 30.55 207.85 30.25
L 207.9 30.25
M 205.05 25.3
Q 205.1 25.55 205.15 25.8 205.15 26.05 205.2 26.3 205.25 26.55 205.3 26.8 205.35 27.05 205.4 27.25 205.45 27.5 205.5 27.75 205.55 28 205.55 28.25 175.55 33.65 145.55 39.05 145.6 39.15 145.6 39.25 139.55 40.35 133.55 41.45
L 109.55 45.9 108.9 42.45 132.95 38.15
Q 168.95 31.65 205 25.15 205.05 25.25 205.05 25.3
M 237.2 29.9
L 237.4 29.9 285 294.55 284.8 294.55 237.2 29.9 Z"/>

<path fill="#D6AF86" stroke="none" d="
M 237.4 29.9
L 237.2 29.9 284.8 294.55 285 294.55 237.4 29.9
M 106.55 43.4
Q 106.5 43.15 106.45 42.9 102.15 43.7 97.95 44.45 84.75 46.8 71.5 49.2 68.05 49.8 64.8 51.05 62.6 51.8 60.7 52.85
L 56.35 58.15 57.15 58.55
Q 57.25 58.8 57.35 59 57.45 59.25 57.45 59.5 57.5 59.75 57.55 60 57.7 60.45 57.9 60.95 58.05 61.4 58.15 61.9 58.35 63.3 58.6 64.4 60.75 74.4 62.6 84.5 64.9 97.05 67.15 109.6 69.4 122.15 71.8 134.65 74.2 147.15 76.45 159.75 78.65 172.25 80.9 184.8 83.15 197.35 85.4 209.9 87.65 222.45 89.95 235 90.05 235.7 90.2 236.4
L 96.8 239.1 64.3 58.55 103.85 51.4 103.5 49 103.95 47.95 107 46.9 106.55 43.4
M 244.05 24.3
Q 243.6 23.55 243 22.95 242.35 22.05 241.45 21.45 240.8 20.95 240.05 20.8 237.6 19.8 235.2 20.15 221.1 22.25 207.15 24.8 207.2 25 207.25 25.15 207.25 25.4 207.3 25.65 207.35 25.9 207.4 26.15 207.45 26.4 207.5 26.65 207.55 26.9 207.6 27.1 207.65 27.35 207.65 27.6 207.7 27.7 207.7 27.8 207.95 27.7 208.2 27.6 211.1 26.75 212.2 27.95 212.8 28.5 213.1 30.15
L 213.35 31.7 236.75 27.5 236.9 28.1 238.25 27.85 273.85 225.9 279.55 222.4
Q 278.85 219.05 278.2 215.7 277.05 209.5 275.85 203.25 275.4 200.5 274.9 197.75 274.25 194.2 273.6 190.6 271.4 178.05 269.15 165.5 266.85 152.95 264.6 140.4 263.55 134.55 262.5 128.65 261.3 122 260.1 115.3 257.85 102.75 255.6 90.2 253.35 77.65 251 65.1 249.7 57.9 248.45 50.85 247.5 45.4 246.55 40 245.8 35.6 245.15 31.1 244.9 29.45 245.65 28 245.3 26.95 244.85 26.05 244.5 25.1 244.05 24.3 Z"/>

<path fill="#B1B1B1" stroke="none" d="
M 205.15 25.8
Q 205.1 25.55 205.05 25.3 205.05 25.25 205 25.15 168.95 31.65 132.95 38.15
L 108.9 42.45 109.55 45.9 133.55 41.45
Q 139.55 40.35 145.6 39.25 145.6 39.15 145.55 39.05 175.55 33.65 205.55 28.25 205.55 28 205.5 27.75 205.45 27.5 205.4 27.25 205.35 27.05 205.3 26.8 205.25 26.55 205.2 26.3 205.15 26.05 205.15 25.8 Z"/>

<path fill="#D4D4D4" stroke="none" d="
M 207.9 30.15
Q 207.9 30.2 207.9 30.25
L 207.85 30.25
Q 207.7 30.55 207.6 30.8 207.45 31 207.3 31.2 206.9 31.35 206.5 31.5 176.3 36.95 146.15 42.35 140.15 43.4 134.1 44.45
L 106.7 48.95 106.15 49.7 107.25 55.1 107.85 55.5 108.6 58.4 109.2 58.85 110.15 61.65
Q 110.25 61.8 110.45 61.9 123.55 61.25 136.6 58.4 164.45 53.45 192.3 48.45 193.85 48.3 195.45 48.1 195.55 48.1 195.7 48.1 196 48 196.35 47.95 201.45 47 202.7 46.6 206.2 45.55 208.5 43.5 211.3 41.15 211.65 38.15 211.8 36.55 211.25 34 210.55 30.9 210.45 29.9 210.05 29.75 208.3 30.05 208.1 30.1 207.9 30.15 Z"/>

<path fill="#FFFDF6" stroke="none" d="
M 160.9 257.3
L 150 256.85 99.95 240.3 115.1 324.45 115.55 324.35 115.65 325 117.1 324.75 117 324.1 283.5 294.15 271.5 227.35
Q 270.8 227.7 270.1 228.15 252.45 238.8 234.1 247.35 220.35 254.05 205.45 256.2 183 258.55 160.9 257.3 Z"/>

<path fill="#FFFFFF" stroke="none" d="
M 213.8 34.1
L 213.85 34.5
Q 214.5 38.15 214.25 40 213.9 42.45 212 44.65 210.25 46.65 207.75 47.85 205.55 48.9 202.7 49.55 200.95 49.9 197.4 50.4
L 197.15 50.45
Q 196.8 50.5 196.55 50.6 194.7 51.05 192.85 51.4 165 56.4 137.15 61.35
L 108.65 65.4 106.1 60.8 105.65 58.3 104.85 57.45 104.25 53.85 67.6 60.45 99.95 240.3 150 256.85 160.9 257.3
Q 183 258.55 205.45 256.2 220.35 254.05 234.1 247.35 252.45 238.8 270.1 228.15 270.8 227.7 271.5 227.35
L 236 30.15 213.8 34.1 Z"/>

<path fill="#D69686" stroke="none" d="
M 96.8 239.1
L 90.2 236.4
Q 92.3 248.25 94.45 260.1 96.7 272.65 99 285.2 101.35 297.8 103.5 310.3 104.25 314.75 104.8 319.2 105 320.85 104.4 322.35 104.75 323.35 105.15 324.4 105.3 324.85 105.55 325.3 105.75 325.7 106 326.1 106.45 326.8 107.05 327.5 107.8 328.3 108.75 328.9 111.55 330.6 114.9 330.55 129.35 327.95 143.75 325.35 158.15 322.8 172.55 320.2 180.25 318.85 187.85 317.55 195.45 316.15 203 314.8 210.65 313.45 218.25 312.1 230.7 309.9 243.2 307.8 253.05 306.05 262.85 304.4 274.65 302.9 285.6 299.15 287.6 298.5 289.3 297.5
L 293.7 292.15 292.9 291.75
Q 292.75 291.55 292.65 291.3 292.6 291.1 292.55 290.85 292.5 290.6 292.4 290.35 292.3 289.85 292.1 289.4 291.95 288.9 291.85 288.4 291.6 287.2 291.35 285.95 289.25 275.9 287.45 265.85 285.2 253.25 282.95 240.75 281.25 231.55 279.55 222.4
L 273.85 225.9 286.5 296.05 114.1 327.1 113.95 326.5 112.55 326.75 96.8 239.1 Z"/>
</g>

<g id="Layer1_1_MEMBER_0_FILL">
<path fill="#D4D4D4" stroke="none" d="
M 217.55 96.65
L 217.55 86.05 69.2 86.05 69.2 96.65 217.55 96.65 Z"/>
</g>

<g id="Layer1_1_MEMBER_1_FILL">
<path fill="#D4D4D4" stroke="none" d="
M 217.55 96.65
L 217.55 86.05 69.2 86.05 69.2 96.65 217.55 96.65 Z"/>
</g>

<g id="Layer1_1_MEMBER_2_FILL">
<path fill="#D4D4D4" stroke="none" d="
M 217.55 96.65
L 217.55 86.05 69.2 86.05 69.2 96.65 217.55 96.65 Z"/>
</g>

<g id="Layer1_1_MEMBER_3_FILL">
<path fill="#D4D4D4" stroke="none" d="
M 217.55 96.65
L 217.55 86.05 69.2 86.05 69.2 96.65 217.55 96.65 Z"/>
</g>

<g id="Layer1_1_MEMBER_4_FILL">
<path fill="#D4D4D4" stroke="none" d="
M 217.55 96.65
L 217.55 86.05 69.2 86.05 69.2 96.65 217.55 96.65 Z"/>
</g>

<g id="Layer1_1_MEMBER_5_FILL">
<path fill="#576570" stroke="none" d="
M 217.55 96.65
L 217.55 86.05 69.2 86.05 69.2 96.65 217.55 96.65 Z"/>
</g>

<g id="Layer1_1_MEMBER_6_FILL">
<path fill="#D4D4D4" stroke="none" d="
M 217.55 96.65
L 217.55 86.05 69.2 86.05 69.2 96.65 217.55 96.65 Z"/>
</g>

<g id="Layer1_1_MEMBER_7_FILL">
<path fill="#D4D4D4" stroke="none" d="
M 217.55 96.65
L 217.55 86.05 69.2 86.05 69.2 96.65 217.55 96.65 Z"/>
</g>

<g id="Layer1_1_MEMBER_8_FILL">
<path fill="#D4D4D4" stroke="none" d="
M 217.55 96.65
L 217.55 86.05 69.2 86.05 69.2 96.65 217.55 96.65 Z"/>
</g>

<g id="Layer1_1_MEMBER_9_FILL">
<path fill="#D4D4D4" stroke="none" d="
M 217.55 96.65
L 217.55 86.05 69.2 86.05 69.2 96.65 217.55 96.65 Z"/>
</g>

<g id="Layer1_1_MEMBER_10_FILL">
<path fill="#D4D4D4" stroke="none" d="
M 217.55 96.65
L 217.55 86.05 69.2 86.05 69.2 96.65 217.55 96.65 Z"/>
</g>

<g id="Layer1_1_MEMBER_11_FILL">
<path fill="#D4D4D4" stroke="none" d="
M 217.55 96.65
L 217.55 86.05 69.2 86.05 69.2 96.65 217.55 96.65 Z"/>
</g>

<g id="Layer1_1_MEMBER_12_FILL">
<path fill="#576570" stroke="none" d="
M 217.55 96.65
L 217.55 86.05 69.2 86.05 69.2 96.65 217.55 96.65 Z"/>
</g>

<g id="Layer1_1_MEMBER_13_FILL">
<path fill="#D4D4D4" stroke="none" d="
M 217.55 96.65
L 217.55 86.05 69.2 86.05 69.2 96.65 217.55 96.65 Z"/>
</g>

<g id="Layer1_2_FILL">
<path fill="#053336" stroke="none" d="
M 126.4 225.2
Q 124.55 243.95 136.55 258.5 148.55 273.05 167.3 274.85 183.35 276.35 196.25 267.9 196.3 267.95 196.35 268 196.45 268.15 196.6 268.35 196.8 268.55 196.9 268.7 197.05 268.9 197.25 269.1 197.4 269.3 197.5 269.45 197.55 269.5 197.65 269.6 197.65 269.9 197.6 270.25 197.95 270.75 198.55 270.4 198.7 270.6 198.85 270.8 199 270.95 199.15 271.15 199.3 271.35 199.45 271.5 199.6 271.7 199.75 271.9 199.9 272.05 200.05 272.25 200.2 272.4 200.35 272.55 200.5 272.75 200.65 272.95 200.8 273.1 200.95 273.3 201.15 273.3 201.35 273.35 200.9 274.25 200.85 275.2
L 200.9 275.25 200.85 275.3
Q 200.75 275.55 200.6 275.75 200.65 276 200.65 276.3 200.75 276.5 200.85 276.7 201 276.9 201.15 277.1 201.3 277.25 201.45 277.45 201.6 277.65 201.75 277.8 201.8 278.1 201.95 278.3 202.1 278.45 202.25 278.65 202.4 278.8 202.5 278.95 202.7 279.15 202.85 279.35 202.95 279.5 203.1 279.7 203.3 279.9 203.4 280.05 203.55 280.25 203.75 280.45 203.85 280.6 204 280.8 204.15 281 204.3 281.15 204.45 281.35 204.6 281.5 204.75 281.65 204.9 281.85 205.05 282.05 205.2 282.2 205.35 282.4 205.5 282.6 205.65 282.75 205.8 282.95 205.95 283.15 206.1 283.3 206.15 283.6 206.25 283.85 206.4 284 206.55 284.2 206.7 284.35 206.85 284.55 207 284.7 207.15 284.9 207.3 285.1 207.45 285.25 207.6 285.45 207.75 285.65 207.85 285.8 208.05 286 208.2 286.2 208.3 286.35 208.45 286.55 208.65 286.75 208.75 286.9 208.9 287.05 209.1 287.25 209.2 287.4 209.35 287.6 209.5 287.8 209.65 287.95 209.8 288.15 209.95 288.35 210.1 288.5 210.25 288.7 210.4 288.9 210.55 289.05 210.7 289.25 210.85 289.45 211 289.6 211.15 289.75 211.3 289.95 211.45 290.1 211.6 290.3 211.75 290.5 211.9 290.65 212.05 290.85 212.2 291.05 212.3 291.2 212.5 291.4 212.65 291.6 212.8 291.8 212.95 291.95 213.1 292.15 213.25 292.3 213.35 292.5 213.55 292.65 213.7 292.85 213.8 293 213.95 293.2 214.15 293.4 214.25 293.55 214.4 293.75 214.6 293.95 214.7 294.1 214.85 294.3 215 294.5 215.15 294.65 215.3 294.85 215.45 295 215.6 295.2 215.75 295.35 215.9 295.55 216.05 295.7 216.2 295.9 216.35 296.1 216.5 296.25 216.65 296.45 216.8 296.65 216.95 296.8 217.1 297 217.25 297.2 217.4 297.35 217.55 297.55 217.7 297.7 217.8 297.9 218 298.05 218.15 298.25 218.25 298.4 218.45 298.6 218.6 298.8 218.75 299 218.85 299.15 219.05 299.35 219.2 299.55 219.3 299.7 219.45 299.9 219.65 300.1 219.75 300.25 219.9 300.45 220.1 300.6 220.2 300.75 220.35 300.95 220.5 301.15 220.65 301.3 220.8 301.5 220.95 301.7 221.1 301.85 221.25 302.05 221.4 302.25 221.55 302.4 221.7 302.6 221.85 302.8 222 302.95 222.15 303.15 222.3 303.3 222.45 303.45 222.6 303.65 222.75 303.85 222.9 304 223.05 304.2 223.2 304.4 223.3 304.55 223.5 304.75 223.65 304.95 223.75 305.1 223.95 305.3 224.1 305.5 224.2 305.65 224.35 305.85 224.55 306 224.65 306.2 224.8 306.35 224.95 306.55 225.15 306.75 225.25 306.9 225.4 307.1 225.6 307.3 225.7 307.45 225.85 307.65 226 307.85 226.15 308 226.3 308.2 226.45 308.35 226.6 308.55 226.75 308.7 226.9 308.9 227.05 309.05 227.2 309.25 227.35 309.45 227.5 309.6 227.65 309.8 227.8 310 227.95 310.15 228.05 310.4 228.1 310.65 228.25 310.8 228.4 311 228.55 311.2 228.65 311.35 228.85 311.5 229 311.7 229.1 311.85 229.3 312.05 229.45 312.25 229.55 312.4 229.7 312.6 229.9 312.8 230 312.95 230.15 313.15 230.3 313.35 230.45 313.5 230.6 313.7 230.75 313.9 230.95 314.05 231.05 314.2 231.2 314.4 231.35 314.6 231.5 314.75 231.65 314.95 231.8 315.15 231.95 315.3 232.1 315.5 232.25 315.7 232.4 315.85 232.55 316.05 232.7 316.25 232.85 316.4 233 316.6 233.15 316.75 233.3 316.95 233.45 317.1 233.6 317.3 233.75 317.45 233.9 317.65 234.05 317.85 234.15 318 234.35 318.2 234.5 318.4 234.6 318.55 234.8 318.75 234.95 318.95 235.05 319.1 235.2 319.3 235.4 319.45 235.5 319.65 235.65 319.8 235.8 320 235.95 320.15 236.1 320.35 236.25 320.55 236.4 320.7 236.55 320.9 236.7 321.1 236.85 321.3 237 321.45 237.15 321.65 237.3 321.85 237.45 322 237.6 322.15 237.75 322.35 237.9 322.5 238.05 322.7 238.2 322.9 238.35 323.05 238.5 323.25 238.65 323.45 238.8 323.6 238.95 323.8 239.1 324 239.25 324.15 239.4 324.35 239.55 324.55 239.65 324.7 239.85 324.9 240 325.05 240.1 325.2 240.3 325.4 240.45 325.6 240.55 325.75 240.7 325.95 240.9 326.15 241 326.3 241.15 326.5 241.35 326.7 241.45 326.85 241.6 327.05 241.75 327.25 241.9 327.4 242.05 327.6 242.2 327.75 242.35 327.9 242.5 328.1 242.65 328.3 242.8 328.5 242.95 328.65 243.1 328.85 243.25 329.05 243.4 329.2 243.55 329.4 243.7 329.6 243.85 329.75 244 329.95 244.15 330.1 244.3 330.3 244.45 330.45 244.6 330.65 244.75 330.8 244.9 331 245.05 331.2 245.15 331.35 245.35 331.55 245.5 331.75 245.6 331.9 245.8 332.1 245.95 332.3 246.05 332.45 246.2 332.65 246.4 332.85 246.5 333 246.65 333.15 246.85 333.35 246.95 333.5 247.1 333.7 247.25 333.9 247.4 334.05 247.55 334.25 247.7 334.45 247.85 334.6 248 334.8 248.15 335 248.3 335.15 248.45 335.35 248.6 335.55 248.75 335.7 248.9 335.85 249.05 336.05 249.2 336.25 249.35 336.4 249.5 336.6 249.65 336.8 249.8 336.95 249.95 337.15 250.1 337.35 250.25 337.5 250.4 337.7 250.55 337.9 250.65 338.05 250.85 338.25 251 338.4 251.1 338.6 251.3 338.75 251.45 338.95 251.55 339.1 251.7 339.3 251.9 339.5 252 339.65 252.15 339.85 252.35 340.05 252.45 340.2 252.6 340.4 252.75 340.6 252.9 340.75 253.05 340.95 253.2 341.1 253.35 341.3 253.5 341.45 253.65 341.65 253.8 341.8 253.95 342 254.2 342.15 254.4 342.25 254.6 342.4 254.85 342.5 255.2 342.5 255.6 342.5 255.85 342.2 256.2 341.8 257.85 341.65 259.55 340.7 260.8 340 263.5 337.8 265 336.4 265.45 335.7 266 334.85 265.9 333.9
L 265.85 333.85
Q 265.95 333.7 266.05 333.65 266.1 333.3 266.1 333.05 266.05 332.8 265.95 332.55 265.8 332.4 265.65 332.2 265.55 331.95 265.45 331.75 265.3 331.55 265.15 331.35 265 331.2 264.85 331 264.7 330.8 264.55 330.65 264.4 330.45 264.25 330.3 264.15 330.15 263.95 329.95 263.8 329.75 263.7 329.6 263.55 329.4 263.35 329.2 263.25 329.05 263.1 328.85 262.9 328.65 262.8 328.5 262.65 328.3 262.5 328.1 262.3 327.95 262.2 327.75 262.05 327.6 261.85 327.4 261.75 327.25 261.6 327.05 261.45 326.85 261.3 326.7 261.15 326.5 261 326.3 260.85 326.15 260.7 325.95 260.55 325.75 260.4 325.6 260.25 325.4 260.1 325.2 259.95 325.05 259.8 324.9 259.65 324.7 259.5 324.55 259.35 324.35 259.2 324.15 259.05 324 258.9 323.8 258.75 323.6 258.65 323.45 258.45 323.25 258.3 323.05 258.2 322.9 258.05 322.7 257.85 322.5 257.75 322.35 257.6 322.2 257.4 322 257.3 321.85 257.15 321.65 257 321.45 256.85 321.3 256.7 321.1 256.55 320.9 256.35 320.7 256.25 320.55 256.1 320.35 255.95 320.15 255.8 320 255.65 319.8 255.5 319.65 255.35 319.45 255.2 319.3 255.05 319.1 254.9 318.95 254.75 318.75 254.6 318.55 254.45 318.4 254.3 318.2 254.15 318 254 317.85 253.85 317.65 253.7 317.45 253.55 317.3 253.4 317.1 253.25 316.95 253.15 316.75 252.95 316.6 252.8 316.4 252.7 316.25 252.55 316.05 252.35 315.85 252.25 315.7 252.1 315.5 251.9 315.3 251.8 315.15 251.65 314.95 251.5 314.75 251.35 314.6 251.2 314.4 251.05 314.25 250.9 314.05 250.75 313.9 250.6 313.7 250.45 313.5 250.3 313.35 250.15 313.15 250 312.95 249.85 312.8 249.7 312.6 249.55 312.4 249.4 312.25 249.25 312.05 249.1 311.85 248.95 311.7 248.8 311.55 248.65 311.35 248.5 311.2 248.35 311 248.2 310.8 248.05 310.65 247.9 310.45 247.75 310.25 247.65 310.1 247.45 309.9 247.3 309.7 247.2 309.55 247.05 309.35 246.85 309.15 246.75 309 246.6 308.8 246.4 308.65 246.3 308.5 246.15 308.3 246 308.1 245.85 307.95 245.7 307.75 245.55 307.55 245.4 307.4 245.25 307.2 245.1 307 244.95 306.85 244.8 306.65 244.65 306.45 244.5 306.3 244.35 306.1 244.2 305.95 244.05 305.75 243.9 305.6 243.75 305.4 243.6 305.2 243.45 305.05 243.3 304.85 243.15 304.65 243 304.5 242.85 304.3 242.7 304.1 242.55 303.95 242.4 303.75 242.25 303.6 242.15 303.4 241.95 303.25 241.8 303.05 241.7 302.9 241.55 302.7 241.35 302.5 241.25 302.35 241.1 302.15 240.9 301.95 240.8 301.8 240.65 301.6 240.5 301.4 240.35 301.25 240.2 301.05 240.05 300.85 239.9 300.7 239.7 300.6 239.5 300.45 239.35 300.3 239.2 300.1 239.05 299.9 238.9 299.75 238.75 299.55 238.6 299.35 238.45 299.2 238.3 299 238.15 298.8 238 298.6 237.85 298.45 237.7 298.25 237.55 298.1 237.4 297.95 237.25 297.75 237.1 297.55 236.95 297.4 236.8 297.2 236.65 297 236.55 296.85 236.35 296.65 236.2 296.45 236.1 296.3 235.95 296.1 235.75 295.9 235.65 295.75 235.5 295.55 235.3 295.4 235.2 295.2 235.05 295.05 234.9 294.85 234.75 294.7 234.6 294.5 234.45 294.3 234.3 294.15 234.15 293.95 234 293.75 233.85 293.6 233.7 293.4 233.55 293.2 233.4 293.05 233.25 292.85 233.1 292.7 232.95 292.5 232.8 292.35 232.65 292.15 232.5 292 232.35 291.8 232.2 291.6 232.05 291.4 231.9 291.25 231.75 291.05 231.6 290.85 231.45 290.7 231.3 290.5 231.15 290.3 231.05 290.15 230.85 290 230.7 289.8 230.6 289.65 230.45 289.45 230.25 289.25 230.15 289.1 230 288.9 229.8 288.7 229.7 288.55 229.55 288.35 229.4 288.15 229.25 288 229.1 287.8 228.95 287.6 228.8 287.45 228.65 287.25 228.5 287.1 228.35 286.95 228.2 286.75 228.05 286.55 227.9 286.4 227.75 286.2 227.6 286 227.45 285.85 227.3 285.65 227.15 285.45 227 285.3 226.85 285.1 226.7 284.9 226.6 284.75 226.4 284.55 226.25 284.4 226.1 284.2 225.95 284.05 225.8 283.85 225.65 283.65 225.55 283.5 225.35 283.3 225.2 283.1 225.1 282.95 224.95 282.75 224.75 282.55 224.65 282.4 224.5 282.2 224.3 282.05 224.2 281.85 224.05 281.7 223.9 281.5 223.75 281.35 223.6 281.15 223.45 280.95 223.3 280.8 223.15 280.6 223 280.4 222.85 280.25 222.7 280.05 222.55 279.85 222.4 279.7 222.25 279.5 222.1 279.35 221.95 279.15 221.8 279 221.65 278.8 221.5 278.65 221.35 278.45 221.2 278.25 221.1 278.1 220.9 277.9 220.75 277.7 220.65 277.55 220.45 277.35 220.3 277.15 220.15 276.95 220.05 276.8 219.85 276.6 219.7 276.45 219.6 276.3 219.45 276.1 219.25 275.9 219.15 275.75 219 275.55 218.8 275.35 218.7 275.2 218.55 275 218.4 274.8 218.25 274.65 218.1 274.45 217.95 274.25 217.8 274.1 217.75 274.1 217.75 274.05 217.8 273.85 217.85 273.6 217.25 272.25 215.95 272.15 215.9 272.1 215.85 272.05 215.7 271.85 215.55 271.65 215.45 271.5 215.25 271.3 215.1 271.15 215 270.95 214.8 270.8 214.65 270.6 214.55 270.45 214.4 270.25 214.2 270.05 214.05 269.85 213.95 269.7 213.75 269.5 213.6 269.3 213.5 269.15 213.35 268.95 213.05 268.85 212.95 268.7 212.8 268.55 212.65 268.35 212.5 268.2 212.35 268 212.2 267.8 212 267.65 211.8 267.55 211.7 267.45 211.6 267.4 211.7 267 211.4 266.65 211.2 266.2 210.7 266 209.85 265.75 208.85 266.1 208.8 266.1 208.75 266.15
L 208.7 266.1
Q 208.65 265.85 208.55 265.6 208.4 265.45 208.25 265.25 208.1 265.05 207.95 264.9 207.8 264.7 207.65 264.55 207.5 264.35 207.35 264.2 207.2 264 207.05 263.8 206.9 263.65 206.75 263.45 206.6 263.25 206.45 263.1 206.3 262.9 206.15 262.7 206.05 262.55 205.85 262.35 205.7 262.15 205.6 262 205.4 261.8 205.25 261.65 205 261.6 204.75 261.5 204.5 261.4 204.35 261.25 215.45 250.15 217.05 233.9 218.9 215.1 206.9 200.55 194.9 186 176.15 184.25 157.3 182.45 142.75 194.4 128.2 206.4 126.4 225.2
M 138.95 256.1
Q 127.85 242.6 129.55 225.2 131.25 207.8 144.75 196.7 158.25 185.55 175.7 187.25 193.05 188.9 204.15 202.4 215.3 215.95 213.65 233.3 211.9 250.7 198.4 261.85 184.9 272.95 167.5 271.25 150.1 269.65 138.95 256.1
M 201.55 267.9
Q 202.1 267.65 202.35 267.25 202.55 267 202.65 266.1 202.8 265.35 203.1 264.6
L 203.8 263.05
Q 203.9 263.15 204.05 263.3 204.15 263.45 204.3 263.65 204.5 263.85 204.6 264 204.75 264.2 204.9 264.4 205.05 264.55 205.2 264.75 205.35 264.95 205.5 265.1 205.65 265.3 205.8 265.5 205.95 265.65 206.1 265.85 206.25 266 206.4 266.2 206.55 266.35 206.7 266.55 206.85 266.75 207 266.9 207.1 267 207.2 267.15 206.85 267.35 206.45 267.65 203.75 269.9 202.85 270.95 202.5 271.3 202.25 271.75 202.25 271.7 202.2 271.65 202.05 271.45 201.9 271.25 201.75 271.1 201.6 270.95 201.45 270.75 201.3 270.6 201.15 270.4 201 270.2 200.85 270.05 200.7 269.85 200.55 269.65 200.4 269.5 200.25 269.3 200.1 269.1 200.05 269.05 200.05 269 200.75 268.35 201.55 267.9
M 202.15 275.45
Q 202.1 275.4 202.05 275.4 202.5 275.3 202.8 274.85 203.3 274.35 204 272.95 204.4 272.4 205.5 271.45
L 207.8 269.6
Q 208.4 269.05 208.75 268.9 209.25 268.7 210.35 268.55 210.35 268.65 210.45 268.8 210.6 269 210.75 269.2 210.9 269.35 211.05 269.55 211.2 269.75 211.35 269.9 211.45 270.15 211.55 270.4 211.7 270.55 211.85 270.75 212 270.9 212.1 271.05 212.3 271.25 212.45 271.45 212.55 271.6 212.7 271.8 212.9 272 213 272.15 213.15 272.35 213.35 272.55 213.35 272.6 213.4 272.6 207.9 274.5 206.65 280.4 206.6 280.35 206.55 280.3 206.4 280.1 206.25 279.95 206.1 279.75 205.95 279.55 205.85 279.4 205.65 279.2 205.5 279.05 205.4 278.85 205.2 278.7 205.05 278.5 204.95 278.35 204.8 278.15 204.6 277.95 204.45 277.75 204.35 277.6 204.15 277.4 204 277.2 203.9 277.05 203.7 276.9 203.45 276.75 203.35 276.6 203.2 276.45 203.05 276.25 202.9 276.1 202.75 275.9 202.6 275.7 202.4 275.6 202.15 275.45
M 215.4 275.05
L 215.45 275.1
Q 214.15 275.6 213 276.3 209.45 278.4 208.15 282 208 281.85 207.75 281.75 207.6 281.6 207.45 281.4 207.3 281.25 207.2 281.05 208.35 277.85 211 275.5 211.8 274.85 212.75 274.5 213.5 273.95 214.4 273.85 214.45 273.9 214.5 273.95 214.65 274.15 214.8 274.3 214.95 274.5 215.1 274.7 215.25 274.85 215.4 275.05
M 217.35 277.75
Q 217.45 277.9 217.65 278.1 217.8 278.3 217.9 278.45 218.05 278.65 218.25 278.85 218.35 279 218.5 279.15 218.7 279.35 218.8 279.5 218.95 279.7 219.1 279.9 219.25 280.05 219.4 280.25 219.55 280.45 219.7 280.6 219.85 280.8 220 281 220.15 281.15 220.3 281.35 220.45 281.55 220.6 281.7 220.75 281.85 220.9 282.05 221.05 282.2 221.2 282.4 221.35 282.6 221.5 282.75 221.65 282.95 221.8 283.15 221.9 283.3 222.1 283.5 222.25 283.7 222.4 283.9 222.55 284.05 222.7 284.25 222.85 284.4 222.95 284.6 223.15 284.75 223.3 284.95 223.4 285.1 223.55 285.3 223.75 285.5 223.85 285.65 224 285.85 224.2 286.05 224.3 286.2 224.45 286.4 224.6 286.6 224.75 286.75 224.9 286.95 225.05 287.1 225.2 287.3 225.35 287.45 225.5 287.65 225.65 287.8 225.8 288 225.95 288.2 226.1 288.35 226.25 288.55 226.4 288.75 226.55 288.9 226.7 289.1 226.85 289.3 227 289.45 227.15 289.65 227.3 289.8 227.4 290 227.6 290.15 227.75 290.35 227.85 290.5 228.05 290.7 228.2 290.9 228.35 291.1 228.45 291.25 228.65 291.45 228.8 291.65 228.9 291.8 229.05 292 229.25 292.2 229.35 292.35 229.5 292.55 229.7 292.7 229.8 292.85 229.95 293.05 230.1 293.25 230.25 293.4 230.4 293.6 230.55 293.8 230.7 293.95 230.85 294.15 231 294.35 231.15 294.5 231.3 294.7 231.45 294.9 231.6 295.05 231.75 295.25 231.9 295.4 232.05 295.55 232.2 295.75 232.35 295.95 232.5 296.1 232.65 296.3 232.8 296.5 232.9 296.65 233.1 296.85 233.25 297.05 233.35 297.2 233.55 297.4 233.7 297.6 233.8 297.75 233.95 297.95 234.15 298.1 234.25 298.3 234.4 298.45 234.55 298.65 234.75 298.85 234.85 299 235 299.2 235.2 299.4 235.3 299.55 235.45 299.75 235.6 299.95 235.75 300.1 235.9 300.3 236.05 300.45 236.2 300.65 236.35 300.8 236.5 301 236.65 301.15 236.8 301.35 236.95 301.55 237.1 301.7 237.25 301.9 237.4 302.1 237.55 302.25 237.65 302.45 237.7 302.75 237.85 302.9 238 303.1 238.15 303.3 238.25 303.45 238.45 303.6 238.6 303.8 238.7 303.95 238.9 304.15 239.05 304.35 239.15 304.5 239.3 304.7 239.5 304.9 239.6 305.05 239.75 305.25 239.9 305.45 240.05 305.6 240.2 305.8 240.35 306 240.55 306.15 240.65 306.3 240.8 306.5 240.95 306.7 241.1 306.85 241.25 307.05 241.4 307.25 241.55 307.4 241.7 307.6 241.85 307.8 242 307.95 242.15 308.15 242.3 308.35 242.45 308.5 242.6 308.7 242.75 308.85 242.9 309.05 243.05 309.2 243.2 309.4 243.35 309.55 243.5 309.75 243.65 309.95 243.75 310.1 243.95 310.3 244.1 310.5 244.2 310.65 244.4 310.85 244.55 311.05 244.65 311.2 244.8 311.4 245 311.55 245.1 311.75 245.25 311.9 245.4 312.1 245.55 312.25 245.7 312.45 245.85 312.65 246 312.8 246.15 313 246.3 313.2 246.45 313.4 246.6 313.55 246.75 313.75 246.9 313.95 247.05 314.1 247.2 314.25 247.35 314.45 247.5 314.6 247.65 314.8 247.8 315 247.95 315.15 248.1 315.35 248.25 315.55 248.4 315.7 248.55 315.9 248.7 316.1 248.85 316.25 249 316.45 249.15 316.65 249.25 316.8 249.45 317 249.6 317.15 249.7 317.3 249.9 317.5 250.05 317.7 250.15 317.85 250.3 318.05 250.5 318.25 250.6 318.4 250.75 318.6 250.95 318.8 251.05 318.95 251.2 319.15 251.35 319.35 251.5 319.5 251.65 319.7 251.8 319.85 251.95 320 252.1 320.2 252.25 320.4 252.4 320.6 252.55 320.75 252.7 320.95 252.85 321.15 253 321.3 253.15 321.5 253.3 321.7 253.45 321.85 253.6 322.05 253.75 322.2 253.9 322.4 254.05 322.55 254.2 322.75 254.35 322.9 254.5 323.1 254.65 323.3 254.75 323.45 254.95 323.65 255.1 323.85 255.2 324 255.4 324.2 255.55 324.4 255.65 324.55 255.8 324.75 256 324.95 256.1 325.1 256.25 325.25 256.45 325.45 256.55 325.6 256.7 325.8 256.85 326 257 326.15 257.15 326.35 257.3 326.55 257.45 326.7 257.6 326.9 257.75 327.1 257.9 327.25 258.05 327.45 258.2 327.65 258.35 327.8 258.5 327.95 258.65 328.15 258.8 328.35 258.95 328.5 259.1 328.7 259.25 328.9 259.4 329.05 259.55 329.25 259.7 329.45 259.85 329.6 260 329.8 260.15 330 260.25 330.15 260.45 330.35 260.6 330.5 260.7 330.7 260.9 330.85 261.05 331.05 261.15 331.2 261.3 331.4 261.5 331.6 261.6 331.75 261.75 331.95 261.95 332.15 262.05 332.3 262.2 332.5 262.35 332.7 262.5 332.85 262.65 333.05 262.8 333.2 262.95 333.4 263.1 333.55 263.25 333.75 263.3 333.8 263.35 333.9 262.95 334.85 262.65 335.3 262.45 335.6 261.8 336.1
L 259.55 338
Q 258.45 338.9 257.85 339.2 256.6 339.5 255.95 339.85 255.95 339.7 255.85 339.65 255.7 339.45 255.55 339.25 255.4 339.1 255.25 338.9 255.1 338.7 254.95 338.55 254.8 338.35 254.65 338.2 254.55 338.05 254.35 337.85 254.2 337.65 254.1 337.5 253.95 337.3 253.75 337.1 253.65 336.95 253.5 336.75 253.3 336.55 253.2 336.4 253.05 336.2 252.9 336 252.7 335.85 252.6 335.65 252.45 335.5 252.25 335.3 252.15 335.15 252 334.95 251.85 334.75 251.7 334.6 251.55 334.4 251.4 334.2 251.25 334.05 251.1 333.85 250.95 333.65 250.8 333.5 250.65 333.3 250.5 333.1 250.35 332.95 250.2 332.8 250.05 332.6 249.9 332.45 249.75 332.25 249.6 332.05 249.45 331.9 249.3 331.7 249.15 331.5 249.05 331.35 248.85 331.15 248.7 330.95 248.6 330.8 248.45 330.6 248.25 330.4 248.15 330.25 248 330.1 247.8 329.9 247.7 329.75 247.55 329.55 247.4 329.35 247.25 329.2 247.1 329 246.95 328.8 246.75 328.6 246.65 328.45 246.5 328.25 246.35 328.05 246.2 327.9 246.05 327.7 245.9 327.55 245.75 327.35 245.6 327.2 245.45 327 245.3 326.85 245.15 326.65 245 326.45 244.85 326.3 244.7 326.1 244.55 325.9 244.4 325.75 244.25 325.55 244.1 325.35 243.95 325.2 243.8 325 243.65 324.85 243.55 324.65 243.35 324.5 243.2 324.3 243.1 324.15 242.95 323.95 242.75 323.75 242.65 323.6 242.5 323.4 242.3 323.2 242.2 323.05 242.05 322.85 241.9 322.65 241.75 322.5 241.6 322.3 241.45 322.15 241.3 321.95 241.15 321.8 241 321.6 240.85 321.4 240.7 321.25 240.55 321.05 240.4 320.85 240.25 320.7 240.1 320.5 239.95 320.3 239.8 320.15 239.65 319.95 239.5 319.75 239.35 319.6 239.2 319.45 239.05 319.25 238.9 319.1 238.75 318.9 238.6 318.7 238.45 318.55 238.3 318.35 238.15 318.15 238.05 318 237.85 317.8 237.7 317.6 237.6 317.45 237.45 317.25 237.25 317.05 237.15 316.9 237 316.7 236.8 316.55 236.7 316.4 236.55 316.2 236.4 316 236.25 315.85 236.1 315.65 235.95 315.45 235.8 315.3 235.65 315.1 235.5 314.9 235.35 314.75 235.2 314.55 235.05 314.35 234.9 314.2 234.75 314 234.6 313.85 234.45 313.65 234.3 313.5 234.15 313.3 234 313.1 233.85 312.95 233.7 312.75 233.55 312.55 233.4 312.4 233.25 312.2 233.1 312 232.95 311.85 232.8 311.65 232.65 311.5 232.55 311.3 232.35 311.15 232.2 310.95 232.1 310.8 231.95 310.6 231.75 310.4 231.65 310.25 231.5 310.05 231.3 309.85 231.2 309.7 231.05 309.5 230.9 309.3 230.75 309.15 230.6 308.95 230.45 308.75 230.3 308.6 230.1 308.5 229.85 308.35 229.7 308.2 229.55 308 229.4 307.8 229.25 307.65 229.1 307.45 228.95 307.25 228.8 307.1 228.65 306.9 228.5 306.7 228.35 306.5 228.2 306.35 228.05 306.15 227.9 306 227.75 305.85 227.6 305.65 227.45 305.45 227.3 305.3 227.15 305.1 227 304.9 226.9 304.75 226.7 304.55 226.55 304.35 226.45 304.2 226.3 304 226.1 303.8 226 303.65 225.85 303.45 225.65 303.3 225.55 303.1 225.4 302.95 225.25 302.75 225.1 302.6 224.95 302.4 224.8 302.2 224.65 302.05 224.5 301.85 224.35 301.65 224.2 301.5 224.05 301.3 223.9 301.1 223.75 300.95 223.6 300.75 223.45 300.6 223.3 300.4 223.15 300.25 223 300.05 222.85 299.9 222.7 299.7 222.55 299.5 222.4 299.3 222.25 299.15 222.1 298.95 221.95 298.75 221.8 298.6 221.65 298.4 221.5 298.2 221.4 298.05 221.2 297.9 221.05 297.7 220.95 297.55 220.8 297.35 220.6 297.15 220.5 297 220.35 296.8 220.15 296.6 220.05 296.45 219.9 296.25 219.75 296.05 219.6 295.9 219.45 295.7 219.3 295.5 219.15 295.35 219 295.15 218.85 295 218.7 294.85 218.55 294.65 218.4 294.45 218.25 294.3 218.1 294.1 217.95 293.9 217.8 293.75 217.65 293.55 217.5 293.35 217.35 293.2 217.2 293 217.05 292.8 216.95 292.65 216.75 292.45 216.6 292.3 216.45 292.1 216.3 291.95 216.15 291.75 216 291.55 215.9 291.4 215.7 291.2 215.55 291 215.45 290.85 215.3 290.65 215.1 290.45 215 290.3 214.85 290.1 214.65 289.95 214.55 289.75 214.4 289.6 214.25 289.4 214.1 289.25 213.95 289.05 213.8 288.85 213.65 288.7 213.5 288.5 213.35 288.3 213.2 288.15 213.05 287.95 212.9 287.75 212.75 287.6 212.6 287.4 212.45 287.25 212.3 287.05 212.15 286.9 212 286.7 211.85 286.55 211.7 286.35 211.55 286.15 211.45 286 211.25 285.8 211.1 285.6 211 285.45 210.8 285.25 210.65 285.05 210.5 284.85 210.4 284.7 210.2 284.5 210.05 284.35 209.95 284.2 209.8 284 209.6 283.8 209.5 283.65 209.35 283.45 209.15 283.25 209.05 283.1 209 283 208.9 282.95 209.15 282.6 209.5 282.15 212.35 278.7 216.15 276.3 216.3 276.45 216.45 276.65 216.6 276.8 216.75 277 216.9 277.2 217.05 277.35 217.2 277.55 217.35 277.75
M 146.1 198.4
Q 133.25 209.05 131.65 225.65 130 242.3 140.6 255.2 151.2 268.1 167.85 269.65 184.45 271.25 197.3 260.6 210.2 250 211.85 233.35 213.45 216.75 202.85 203.85 192.25 190.95 175.65 189.35 159 187.8 146.1 198.4
M 133.45 225.8
Q 134.95 210 147.25 199.9 159.5 189.8 175.35 191.3 191.15 192.8 201.25 205.05 211.35 217.35 209.85 233.2 208.25 248.95 196 259.05 183.7 269.15 167.95 267.7 152.15 266.15 142.05 253.85 131.95 241.6 133.45 225.8 Z"/>

<path fill="#B8754D" stroke="none" d="
M 217.65 278.1
Q 217.45 277.9 217.35 277.75 217.2 277.55 217.05 277.35 216.9 277.2 216.75 277 216.6 276.8 216.45 276.65 216.3 276.45 216.15 276.3 212.35 278.7 209.5 282.15 209.15 282.6 208.9 282.95 209 283 209.05 283.1 209.15 283.25 209.35 283.45 209.5 283.65 209.6 283.8 209.8 284 209.95 284.2 210.05 284.35 210.2 284.5 210.4 284.7 210.5 284.85 210.65 285.05 210.8 285.25 211 285.45 211.1 285.6 211.25 285.8 211.45 286 211.55 286.15 211.7 286.35 211.85 286.55 212 286.7 212.15 286.9 212.3 287.05 212.45 287.25 212.6 287.4 212.75 287.6 212.9 287.75 213.05 287.95 213.2 288.15 213.35 288.3 213.5 288.5 213.65 288.7 213.8 288.85 213.95 289.05 214.1 289.25 214.25 289.4 214.4 289.6 214.55 289.75 214.65 289.95 214.85 290.1 215 290.3 215.1 290.45 215.3 290.65 215.45 290.85 215.55 291 215.7 291.2 215.9 291.4 216 291.55 216.15 291.75 216.3 291.95 216.45 292.1 216.6 292.3 216.75 292.45 216.95 292.65 217.05 292.8 217.2 293 217.35 293.2 217.5 293.35 217.65 293.55 217.8 293.75 217.95 293.9 218.1 294.1 218.25 294.3 218.4 294.45 218.55 294.65 218.7 294.85 218.85 295 219 295.15 219.15 295.35 219.3 295.5 219.45 295.7 219.6 295.9 219.75 296.05 219.9 296.25 220.05 296.45 220.15 296.6 220.35 296.8 220.5 297 220.6 297.15 220.8 297.35 220.95 297.55 221.05 297.7 221.2 297.9 221.4 298.05 221.5 298.2 221.65 298.4 221.8 298.6 221.95 298.75 222.1 298.95 222.25 299.15 222.4 299.3 222.55 299.5 222.7 299.7 222.85 299.9 223 300.05 223.15 300.25 223.3 300.4 223.45 300.6 223.6 300.75 223.75 300.95 223.9 301.1 224.05 301.3 224.2 301.5 224.35 301.65 224.5 301.85 224.65 302.05 224.8 302.2 224.95 302.4 225.1 302.6 225.25 302.75 225.4 302.95 225.55 303.1 225.65 303.3 225.85 303.45 226 303.65 226.1 303.8 226.3 304 226.45 304.2 226.55 304.35 226.7 304.55 226.9 304.75 227 304.9 227.15 305.1 227.3 305.3 227.45 305.45 227.6 305.65 227.75 305.85 227.9 306 228.05 306.15 228.2 306.35 228.35 306.5 228.5 306.7 228.65 306.9 228.8 307.1 228.95 307.25 229.1 307.45 229.25 307.65 229.4 307.8 229.55 308 229.7 308.2 229.85 308.35 230.1 308.5 230.3 308.6 230.45 308.75 230.6 308.95 230.75 309.15 230.9 309.3 231.05 309.5 231.2 309.7 231.3 309.85 231.5 310.05 231.65 310.25 231.75 310.4 231.95 310.6 232.1 310.8 232.2 310.95 232.35 311.15 232.55 311.3 232.65 311.5 232.8 311.65 232.95 311.85 233.1 312 233.25 312.2 233.4 312.4 233.55 312.55 233.7 312.75 233.85 312.95 234 313.1 234.15 313.3 234.3 313.5 234.45 313.65 234.6 313.85 234.75 314 234.9 314.2 235.05 314.35 235.2 314.55 235.35 314.75 235.5 314.9 235.65 315.1 235.8 315.3 235.95 315.45 236.1 315.65 236.25 315.85 236.4 316 236.55 316.2 236.7 316.4 236.8 316.55 237 316.7 237.15 316.9 237.25 317.05 237.45 317.25 237.6 317.45 237.7 317.6 237.85 317.8 238.05 318 238.15 318.15 238.3 318.35 238.45 318.55 238.6 318.7 238.75 318.9 238.9 319.1 239.05 319.25 239.2 319.45 239.35 319.6 239.5 319.75 239.65 319.95 239.8 320.15 239.95 320.3 240.1 320.5 240.25 320.7 240.4 320.85 240.55 321.05 240.7 321.25 240.85 321.4 241 321.6 241.15 321.8 241.3 321.95 241.45 322.15 241.6 322.3 241.75 322.5 241.9 322.65 242.05 322.85 242.2 323.05 242.3 323.2 242.5 323.4 242.65 323.6 242.75 323.75 242.95 323.95 243.1 324.15 243.2 324.3 243.35 324.5 243.55 324.65 243.65 324.85 243.8 325 243.95 325.2 244.1 325.35 244.25 325.55 244.4 325.75 244.55 325.9 244.7 326.1 244.85 326.3 245 326.45 245.15 326.65 245.3 326.85 245.45 327 245.6 327.2 245.75 327.35 245.9 327.55 246.05 327.7 246.2 327.9 246.35 328.05 246.5 328.25 246.65 328.45 246.75 328.6 246.95 328.8 247.1 329 247.25 329.2 247.4 329.35 247.55 329.55 247.7 329.75 247.8 329.9 248 330.1 248.15 330.25 248.25 330.4 248.45 330.6 248.6 330.8 248.7 330.95 248.85 331.15 249.05 331.35 249.15 331.5 249.3 331.7 249.45 331.9 249.6 332.05 249.75 332.25 249.9 332.45 250.05 332.6 250.2 332.8 250.35 332.95 250.5 333.1 250.65 333.3 250.8 333.5 250.95 333.65 251.1 333.85 251.25 334.05 251.4 334.2 251.55 334.4 251.7 334.6 251.85 334.75 252 334.95 252.15 335.15 252.25 335.3 252.45 335.5 252.6 335.65 252.7 335.85 252.9 336 253.05 336.2 253.2 336.4 253.3 336.55 253.5 336.75 253.65 336.95 253.75 337.1 253.95 337.3 254.1 337.5 254.2 337.65 254.35 337.85 254.55 338.05 254.65 338.2 254.8 338.35 254.95 338.55 255.1 338.7 255.25 338.9 255.4 339.1 255.55 339.25 255.7 339.45 255.85 339.65 255.95 339.7 255.95 339.85 256.6 339.5 257.85 339.2 258.45 338.9 259.55 338
L 261.8 336.1
Q 262.45 335.6 262.65 335.3 262.95 334.85 263.35 333.9 263.3 333.8 263.25 333.75 263.1 333.55 262.95 333.4 262.8 333.2 262.65 333.05 262.5 332.85 262.35 332.7 262.2 332.5 262.05 332.3 261.95 332.15 261.75 331.95 261.6 331.75 261.5 331.6 261.3 331.4 261.15 331.2 261.05 331.05 260.9 330.85 260.7 330.7 260.6 330.5 260.45 330.35 260.25 330.15 260.15 330 260 329.8 259.85 329.6 259.7 329.45 259.55 329.25 259.4 329.05 259.25 328.9 259.1 328.7 258.95 328.5 258.8 328.35 258.65 328.15 258.5 327.95 258.35 327.8 258.2 327.65 258.05 327.45 257.9 327.25 257.75 327.1 257.6 326.9 257.45 326.7 257.3 326.55 257.15 326.35 257 326.15 256.85 326 256.7 325.8 256.55 325.6 256.45 325.45 256.25 325.25 256.1 325.1 256 324.95 255.8 324.75 255.65 324.55 255.55 324.4 255.4 324.2 255.2 324 255.1 323.85 254.95 323.65 254.75 323.45 254.65 323.3 254.5 323.1 254.35 322.9 254.2 322.75 254.05 322.55 253.9 322.4 253.75 322.2 253.6 322.05 253.45 321.85 253.3 321.7 253.15 321.5 253 321.3 252.85 321.15 252.7 320.95 252.55 320.75 252.4 320.6 252.25 320.4 252.1 320.2 251.95 320 251.8 319.85 251.65 319.7 251.5 319.5 251.35 319.35 251.2 319.15 251.05 318.95 250.95 318.8 250.75 318.6 250.6 318.4 250.5 318.25 250.3 318.05 250.15 317.85 250.05 317.7 249.9 317.5 249.7 317.3 249.6 317.15 249.45 317 249.25 316.8 249.15 316.65 249 316.45 248.85 316.25 248.7 316.1 248.55 315.9 248.4 315.7 248.25 315.55 248.1 315.35 247.95 315.15 247.8 315 247.65 314.8 247.5 314.6 247.35 314.45 247.2 314.25 247.05 314.1 246.9 313.95 246.75 313.75 246.6 313.55 246.45 313.4 246.3 313.2 246.15 313 246 312.8 245.85 312.65 245.7 312.45 245.55 312.25 245.4 312.1 245.25 311.9 245.1 311.75 245 311.55 244.8 311.4 244.65 311.2 244.55 311.05 244.4 310.85 244.2 310.65 244.1 310.5 243.95 310.3 243.75 310.1 243.65 309.95 243.5 309.75 243.35 309.55 243.2 309.4 243.05 309.2 242.9 309.05 242.75 308.85 242.6 308.7 242.45 308.5 242.3 308.35 242.15 308.15 242 307.95 241.85 307.8 241.7 307.6 241.55 307.4 241.4 307.25 241.25 307.05 241.1 306.85 240.95 306.7 240.8 306.5 240.65 306.3 240.55 306.15 240.35 306 240.2 305.8 240.05 305.6 239.9 305.45 239.75 305.25 239.6 305.05 239.5 304.9 239.3 304.7 239.15 304.5 239.05 304.35 238.9 304.15 238.7 303.95 238.6 303.8 238.45 303.6 238.25 303.45 238.15 303.3 238 303.1 237.85 302.9 237.7 302.75 237.65 302.45 237.55 302.25 237.4 302.1 237.25 301.9 237.1 301.7 236.95 301.55 236.8 301.35 236.65 301.15 236.5 301 236.35 300.8 236.2 300.65 236.05 300.45 235.9 300.3 235.75 300.1 235.6 299.95 235.45 299.75 235.3 299.55 235.2 299.4 235 299.2 234.85 299 234.75 298.85 234.55 298.65 234.4 298.45 234.25 298.3 234.15 298.1 233.95 297.95 233.8 297.75 233.7 297.6 233.55 297.4 233.35 297.2 233.25 297.05 233.1 296.85 232.9 296.65 232.8 296.5 232.65 296.3 232.5 296.1 232.35 295.95 232.2 295.75 232.05 295.55 231.9 295.4 231.75 295.25 231.6 295.05 231.45 294.9 231.3 294.7 231.15 294.5 231 294.35 230.85 294.15 230.7 293.95 230.55 293.8 230.4 293.6 230.25 293.4 230.1 293.25 229.95 293.05 229.8 292.85 229.7 292.7 229.5 292.55 229.35 292.35 229.25 292.2 229.05 292 228.9 291.8 228.8 291.65 228.65 291.45 228.45 291.25 228.35 291.1 228.2 290.9 228.05 290.7 227.85 290.5 227.75 290.35 227.6 290.15 227.4 290 227.3 289.8 227.15 289.65 227 289.45 226.85 289.3 226.7 289.1 226.55 288.9 226.4 288.75 226.25 288.55 226.1 288.35 225.95 288.2 225.8 288 225.65 287.8 225.5 287.65 225.35 287.45 225.2 287.3 225.05 287.1 224.9 286.95 224.75 286.75 224.6 286.6 224.45 286.4 224.3 286.2 224.2 286.05 224 285.85 223.85 285.65 223.75 285.5 223.55 285.3 223.4 285.1 223.3 284.95 223.15 284.75 222.95 284.6 222.85 284.4 222.7 284.25 222.55 284.05 222.4 283.9 222.25 283.7 222.1 283.5 221.9 283.3 221.8 283.15 221.65 282.95 221.5 282.75 221.35 282.6 221.2 282.4 221.05 282.2 220.9 282.05 220.75 281.85 220.6 281.7 220.45 281.55 220.3 281.35 220.15 281.15 220 281 219.85 280.8 219.7 280.6 219.55 280.45 219.4 280.25 219.25 280.05 219.1 279.9 218.95 279.7 218.8 279.5 218.7 279.35 218.5 279.15 218.35 279 218.25 278.85 218.05 278.65 217.9 278.45 217.8 278.3 217.65 278.1
M 202.05 275.4
Q 202.1 275.4 202.15 275.45 202.4 275.6 202.6 275.7 202.75 275.9 202.9 276.1 203.05 276.25 203.2 276.45 203.35 276.6 203.45 276.75 203.7 276.9 203.9 277.05 204 277.2 204.15 277.4 204.35 277.6 204.45 277.75 204.6 277.95 204.8 278.15 204.95 278.35 205.05 278.5 205.2 278.7 205.4 278.85 205.5 279.05 205.65 279.2 205.85 279.4 205.95 279.55 206.1 279.75 206.25 279.95 206.4 280.1 206.55 280.3 206.6 280.35 206.65 280.4 207.9 274.5 213.4 272.6 213.35 272.6 213.35 272.55 213.15 272.35 213 272.15 212.9 272 212.7 271.8 212.55 271.6 212.45 271.45 212.3 271.25 212.1 271.05 212 270.9 211.85 270.75 211.7 270.55 211.55 270.4 211.45 270.15 211.35 269.9 211.2 269.75 211.05 269.55 210.9 269.35 210.75 269.2 210.6 269 210.45 268.8 210.35 268.65 210.35 268.55 209.25 268.7 208.75 268.9 208.4 269.05 207.8 269.6
L 205.5 271.45
Q 204.4 272.4 204 272.95 203.3 274.35 202.8 274.85 202.5 275.3 202.05 275.4 Z"/>

<path fill="#D6A16E" stroke="none" d="
M 215.45 275.1
L 215.4 275.05
Q 215.25 274.85 215.1 274.7 214.95 274.5 214.8 274.3 214.65 274.15 214.5 273.95 214.45 273.9 214.4 273.85 213.5 273.95 212.75 274.5 211.8 274.85 211 275.5 208.35 277.85 207.2 281.05 207.3 281.25 207.45 281.4 207.6 281.6 207.75 281.75 208 281.85 208.15 282 209.45 278.4 213 276.3 214.15 275.6 215.45 275.1 Z"/>

<path fill="#94919F" stroke="none" d="
M 202.35 267.25
Q 202.1 267.65 201.55 267.9 200.75 268.35 200.05 269 200.05 269.05 200.1 269.1 200.25 269.3 200.4 269.5 200.55 269.65 200.7 269.85 200.85 270.05 201 270.2 201.15 270.4 201.3 270.6 201.45 270.75 201.6 270.95 201.75 271.1 201.9 271.25 202.05 271.45 202.2 271.65 202.25 271.7 202.25 271.75 202.5 271.3 202.85 270.95 203.75 269.9 206.45 267.65 206.85 267.35 207.2 267.15 207.1 267 207 266.9 206.85 266.75 206.7 266.55 206.55 266.35 206.4 266.2 206.25 266 206.1 265.85 205.95 265.65 205.8 265.5 205.65 265.3 205.5 265.1 205.35 264.95 205.2 264.75 205.05 264.55 204.9 264.4 204.75 264.2 204.6 264 204.5 263.85 204.3 263.65 204.15 263.45 204.05 263.3 203.9 263.15 203.8 263.05
L 203.1 264.6
Q 202.8 265.35 202.65 266.1 202.55 267 202.35 267.25 Z"/>

<path fill="#D4D4D4" stroke="none" d="
M 129.55 225.2
Q 127.85 242.6 138.95 256.1 150.1 269.65 167.5 271.25 184.9 272.95 198.4 261.85 211.9 250.7 213.65 233.3 215.3 215.95 204.15 202.4 193.05 188.9 175.7 187.25 158.25 185.55 144.75 196.7 131.25 207.8 129.55 225.2
M 131.65 225.65
Q 133.25 209.05 146.1 198.4 159 187.8 175.65 189.35 192.25 190.95 202.85 203.85 213.45 216.75 211.85 233.35 210.2 250 197.3 260.6 184.45 271.25 167.85 269.65 151.2 268.1 140.6 255.2 130 242.3 131.65 225.65 Z"/>

<path fill="url(#Gradient_2)" stroke="none" d="
M 147.25 199.9
Q 134.95 210 133.45 225.8 131.95 241.6 142.05 253.85 152.15 266.15 167.95 267.7 183.7 269.15 196 259.05 208.25 248.95 209.85 233.2 211.35 217.35 201.25 205.05 191.15 192.8 175.35 191.3 159.5 189.8 147.25 199.9 Z"/>
</g>
</defs>

<g transform="matrix( 0, -1.018524169921875, 1.018524169921875, 0, -4.45,361.6) ">
<use xlink:href="#Layer1_0_FILL"/>
</g>

<g transform="matrix( 1, 0, 0, 1, 0,0) ">
<use xlink:href="#Layer1_1_FILL"/>
</g>

<g transform="matrix( 0.984161376953125, -0.17706298828125, 0.146942138671875, 0.8166656494140625, 23.9,144.8) ">
<use xlink:href="#Layer1_1_MEMBER_0_FILL"/>
</g>

<g transform="matrix( 0.984161376953125, -0.17706298828125, 0.146942138671875, 0.8166656494140625, 26.45,159) ">
<use xlink:href="#Layer1_1_MEMBER_1_FILL"/>
</g>

<g transform="matrix( 0.984161376953125, -0.17706298828125, 0.146942138671875, 0.8166656494140625, 29.05,173.3) ">
<use xlink:href="#Layer1_1_MEMBER_2_FILL"/>
</g>

<g transform="matrix( 0.984161376953125, -0.17706298828125, 0.146942138671875, 0.8166656494140625, 31.6,187.5) ">
<use xlink:href="#Layer1_1_MEMBER_3_FILL"/>
</g>

<g transform="matrix( 0.984161376953125, -0.17706298828125, 0.146942138671875, 0.8166656494140625, 34.15,201.85) ">
<use xlink:href="#Layer1_1_MEMBER_4_FILL"/>
</g>

<g transform="matrix( 0.984161376953125, -0.17706298828125, 0.146942138671875, 0.8166656494140625, 41.8,244.3) ">
<use xlink:href="#Layer1_1_MEMBER_5_FILL"/>
</g>

<g transform="matrix( 0.984161376953125, -0.17706298828125, 0.146942138671875, 0.8166656494140625, 39.4,230.8) ">
<use xlink:href="#Layer1_1_MEMBER_6_FILL"/>
</g>

<g transform="matrix( -0.984161376953125, 0.17706298828125, -0.146942138671875, -0.816650390625, 328,220.6) ">
<use xlink:href="#Layer1_1_MEMBER_7_FILL"/>
</g>

<g transform="matrix( -0.984161376953125, 0.17706298828125, -0.146942138671875, -0.816650390625, 325.45,206.4) ">
<use xlink:href="#Layer1_1_MEMBER_8_FILL"/>
</g>

<g transform="matrix( -0.984161376953125, 0.17706298828125, -0.146942138671875, -0.816650390625, 322.85,192.1) ">
<use xlink:href="#Layer1_1_MEMBER_9_FILL"/>
</g>

<g transform="matrix( -0.984161376953125, 0.17706298828125, -0.146942138671875, -0.816650390625, 320.3,177.9) ">
<use xlink:href="#Layer1_1_MEMBER_10_FILL"/>
</g>

<g transform="matrix( -0.984161376953125, 0.17706298828125, -0.146942138671875, -0.816650390625, 317.75,163.55) ">
<use xlink:href="#Layer1_1_MEMBER_11_FILL"/>
</g>

<g transform="matrix( -0.984161376953125, 0.17706298828125, -0.146942138671875, -0.816650390625, 310.1,121.1) ">
<use xlink:href="#Layer1_1_MEMBER_12_FILL"/>
</g>

<g transform="matrix( -0.984161376953125, 0.17706298828125, -0.146942138671875, -0.816650390625, 312.5,134.6) ">
<use xlink:href="#Layer1_1_MEMBER_13_FILL"/>
</g>

<g transform="matrix( 1.27099609375, 0, 0, 1.27099609375, -93.7,-181.3) ">
<use xlink:href="#Layer1_2_FILL"/>
</g>
</svg>
