
<svg xmlns="http://www.w3.org/2000/svg" version="1.1" xmlns:xlink="http://www.w3.org/1999/xlink" preserveAspectRatio="none" x="0px" y="0px" width="50px" height="80px" viewBox="0 0 50 80">
<defs>
<g id="Layer0_0_MEMBER_0_FILL">
<path fill="#6B2714" stroke="none" d="
M 685.15 84.65
Q 685.572265625 84.362890625 685.95 84.05
L 685.15 80.5 684.15 76.3 669.95 76.3 668.95 80.45 668.1 83.95
Q 668.517578125 84.3060546875 668.95 84.6 672.55 87 677.1 87 681.6 87 685.15 84.65 Z"/>

<path fill="#B84A2C" stroke="none" d="
M 685.95 84.05
Q 685.572265625 84.362890625 685.15 84.65 681.6 87 677.1 87 672.55 87 668.95 84.6 668.517578125 84.3060546875 668.1 83.95 659.288671875 103.1076171875 658.75 123 678.041015625 135.3974609375 695.15 123 695.8595703125 103.2412109375 685.95 84.05 Z"/>
</g>

<g id="Layer0_0_MEMBER_1_FILL">
<path fill="#B84A2C" stroke="none" d="
M 687.55 60.25
Q 683.25 55.95 677.1 55.95 670.95 55.95 666.6 60.25 662.3 64.6 662.3 70.75 662.3 76.9 666.6 81.2 670.95 85.55 677.1 85.55 683.25 85.55 687.55 81.2 691.9 76.9 691.9 70.75 691.9 64.6 687.55 60.25 Z"/>
</g>

<g id="Layer0_0_MEMBER_2_FILL">
<path fill="#DB907B" stroke="none" d="
M 686.05 63.05
Q 686.05 61.75 685.1 60.8 684.2 59.9 682.9 59.9 681.6 59.9 680.65 60.8 679.75 61.75 679.75 63.05 679.75 64.35 680.65 65.25 681.6 66.2 682.9 66.2 684.2 66.2 685.1 65.25 686.05 64.35 686.05 63.05 Z"/>
</g>

<g id="Layer0_0_MEMBER_3_FILL">
<path fill="#DB907B" stroke="none" d="
M 685.65 123.05
Q 685.55 122.85 685.05 122.85 684.35 122.95 683 123.3 681.6 123.65 680.9 123.7
L 679.4 123.75
Q 672.85 123.65 666.95 122 665.3 121.6 663.85 120.95 663.15 120.65 662.8 120.6 662.1 120.5 661.8 121 662.1 121.35 663 121.75 667.1 123.45 669.25 124 672.45 124.85 676.65 125.1 681 125.45 683.65 124.7 685.1 124.3 685.55 123.55 685.75 123.25 685.65 123.05 Z"/>
</g>

<g id="Layer0_0_MEMBER_4_FILL">
<path fill="#DB907B" stroke="none" d="
M 689.8 122.1
Q 689.8 121.75 689.45 121.5 689.15 121.25 688.7 121.25 688.25 121.25 687.9 121.5 687.6 121.75 687.6 122.1 687.6 122.45 687.9 122.7 688.25 122.95 688.7 122.95 689.15 122.95 689.45 122.7 689.8 122.45 689.8 122.1 Z"/>
</g>
</defs>

<g transform="matrix( 1, 0, 0, 1, -651.95,-51.2) ">
<use xlink:href="#Layer0_0_MEMBER_0_FILL"/>
</g>

<g transform="matrix( 1, 0, 0, 1, -651.95,-53.9) ">
<use xlink:href="#Layer0_0_MEMBER_1_FILL"/>
</g>

<g transform="matrix( 1, 0, 0, 1, -651.75,-53.2) ">
<use xlink:href="#Layer0_0_MEMBER_2_FILL"/>
</g>

<g transform="matrix( 1, 0, 0, 1, -651.95,-51.2) ">
<use xlink:href="#Layer0_0_MEMBER_3_FILL"/>
</g>

<g transform="matrix( 1, 0, 0, 1, -651.95,-51.2) ">
<use xlink:href="#Layer0_0_MEMBER_4_FILL"/>
</g>
</svg>
